<?xml version="1.0" standalone="no"?>
<!DOCTYPE svg PUBLIC "-//W3C//DTD SVG 20010904//EN"
 "http://www.w3.org/TR/2001/REC-SVG-20010904/DTD/svg10.dtd">
<svg version="1.0" xmlns="http://www.w3.org/2000/svg"
 width="460.000000pt" height="460.000000pt" viewBox="0 0 460.000000 460.000000"
 preserveAspectRatio="xMidYMid meet">
<metadata>
Created by potrace 1.14, written by Peter Selinger 2001-2017
</metadata>
<g transform="translate(0.000000,460.000000) scale(0.100000,-0.100000)"
fill="#000000" stroke="none">
<path d="M2386 4557 c-57 -35 -77 -70 -70 -123 5 -46 36 -74 73 -67 36 6 41
11 40 41 l-1 27 -11 -27 c-11 -28 -22 -33 -50 -22 -9 3 -13 13 -9 26 4 17 2
20 -12 15 -9 -4 -14 -3 -11 2 3 5 1 12 -4 15 -13 8 -2 45 20 67 48 48 109 52
159 11 30 -25 34 -35 37 -83 3 -61 -4 -109 -17 -109 -4 0 -6 9 -3 20 3 11 1
20 -5 20 -15 0 -21 -37 -9 -49 8 -8 6 -11 -6 -11 -9 0 -17 -6 -17 -12 0 -26
-70 -75 -123 -86 -104 -22 -122 -20 -169 22 -23 21 -53 43 -65 49 -13 6 -23
13 -23 17 0 7 -88 35 -155 48 -71 15 -261 0 -325 -25 -8 -3 -21 -7 -28 -9 -49
-10 -196 -145 -225 -207 -10 -19 -23 -37 -30 -40 -6 -2 -9 -8 -5 -12 11 -11
27 3 47 43 18 36 104 129 152 164 12 10 43 25 68 34 25 9 53 19 61 22 64 23
49 2 -23 -33 -62 -30 -172 -129 -161 -146 3 -5 0 -9 -5 -9 -6 0 -11 -8 -11
-19 0 -10 -7 -24 -15 -31 -17 -14 -21 -35 -5 -25 6 3 7 -1 4 -9 -3 -9 -1 -16
5 -16 6 0 11 9 11 19 0 11 5 23 10 26 6 3 10 13 10 21 0 16 60 103 72 104 4 0
-9 -30 -27 -67 -19 -38 -35 -82 -35 -99 0 -30 1 -31 44 -32 30 -1 65 -12 102
-32 64 -34 64 -34 64 -20 0 6 -6 10 -14 10 -7 0 -19 7 -26 15 -7 8 -21 15 -31
15 -11 0 -19 4 -19 9 0 4 -24 12 -52 17 -34 6 -52 14 -50 22 1 7 3 20 5 30 6
37 49 109 91 152 56 58 65 65 109 81 20 7 37 16 37 19 0 9 56 15 135 15 78 -1
157 -19 197 -47 14 -10 30 -18 35 -18 8 0 88 -69 82 -71 -2 -1 -13 -3 -24 -4
-106 -12 -180 -38 -221 -79 -8 -9 -22 -16 -30 -16 -8 0 -14 -5 -14 -11 0 -7
-6 -17 -14 -23 -8 -6 -17 -26 -21 -43 -5 -28 -4 -32 9 -27 11 4 16 1 16 -10 0
-18 67 -85 87 -87 22 -2 28 -4 39 -11 31 -20 159 41 187 88 4 7 14 11 21 8 9
-3 15 7 19 33 11 62 8 87 -13 128 -11 22 -20 39 -20 40 0 0 19 1 43 1 40 1
102 10 102 14 0 1 10 3 23 6 31 6 76 29 91 48 8 9 11 16 7 16 -3 0 7 12 24 28
32 29 40 49 44 124 2 32 -2 57 -15 78 -36 59 -115 86 -163 57z m-164 -402 c6
-14 15 -25 20 -25 4 0 8 -5 8 -11 0 -5 -4 -8 -8 -5 -4 2 -8 -4 -8 -15 0 -10 7
-19 16 -19 13 0 13 -2 1 -9 -8 -5 -16 -16 -17 -25 -9 -63 -91 -138 -150 -138
-19 0 -42 6 -50 13 -12 9 -17 10 -23 1 -8 -13 -66 23 -77 48 -14 34 -22 80
-12 80 5 0 7 4 3 9 -3 6 5 15 17 22 13 6 34 21 48 33 31 27 100 59 100 46 0
-5 -10 -15 -22 -21 -27 -14 -57 -49 -58 -66 0 -7 -4 -13 -10 -13 -5 0 -10 -8
-10 -18 0 -10 -5 -23 -11 -29 -13 -13 -2 -58 19 -75 14 -11 15 -10 7 7 -39 95
61 213 198 234 4 0 13 -10 19 -24z"/>
<path d="M2363 4484 c-14 -12 -23 -28 -21 -35 3 -9 10 -5 22 14 13 19 27 27
47 27 38 0 77 -19 84 -42 4 -10 11 -18 16 -18 28 0 -15 52 -56 67 -42 16 -62
13 -92 -13z"/>
<path d="M2510 4401 c0 -12 5 -21 10 -21 6 0 10 6 10 14 0 8 -4 18 -10 21 -5
3 -10 -3 -10 -14z"/>
<path d="M1331 4027 c-6 -8 -8 -16 -5 -19 7 -8 -24 -68 -35 -68 -5 0 -11 -8
-15 -17 -3 -10 -9 -25 -14 -33 -33 -57 -51 -100 -43 -100 11 0 41 56 41 77 0
7 4 13 8 13 5 0 15 12 22 28 11 22 14 24 17 10 6 -26 25 -22 22 5 -2 12 -1 27
2 32 8 13 21 85 16 85 -3 0 -10 -6 -16 -13z"/>
<path d="M1427 4032 c-12 -20 -18 -72 -8 -72 6 0 11 5 11 11 0 6 8 9 18 7 12
-4 17 1 17 18 0 22 -30 51 -38 36z"/>
<path d="M1490 3969 c0 -11 5 -17 10 -14 6 3 10 13 10 21 0 8 -4 14 -10 14 -5
0 -10 -9 -10 -21z"/>
<path d="M1880 3966 c0 -9 5 -16 10 -16 6 0 10 4 10 9 0 6 -4 13 -10 16 -5 3
-10 -1 -10 -9z"/>
<path d="M2230 3950 c-6 -11 -8 -20 -5 -20 3 0 -4 -9 -16 -21 -11 -11 -18 -23
-14 -27 9 -9 54 50 55 71 0 23 -7 22 -20 -3z"/>
<path d="M1430 3945 c0 -8 4 -15 9 -15 5 0 11 7 15 15 3 9 0 15 -9 15 -8 0
-15 -7 -15 -15z"/>
<path d="M1397 3931 c-3 -12 -1 -21 3 -21 15 0 23 21 12 32 -6 6 -11 2 -15
-11z"/>
<path d="M1480 3920 c0 -11 5 -20 10 -20 6 0 10 9 10 20 0 11 -4 20 -10 20 -5
0 -10 -9 -10 -20z"/>
<path d="M1883 3905 c16 -101 158 -152 249 -90 20 14 41 25 46 25 5 0 15 7 22
15 10 12 10 15 -3 15 -8 0 -20 -7 -27 -15 -7 -8 -17 -15 -23 -15 -6 0 -19 -8
-29 -17 -26 -23 -140 -23 -163 1 -9 9 -19 16 -23 16 -10 0 -32 50 -32 71 0 10
-5 21 -12 25 -8 5 -9 -3 -5 -31z"/>
<path d="M1702 3918 c3 -7 13 -15 24 -17 16 -3 17 -1 5 13 -16 19 -34 21 -29
4z"/>
<path d="M1427 3900 c-3 -11 -1 -20 4 -20 5 0 9 9 9 20 0 11 -2 20 -4 20 -2 0
-6 -9 -9 -20z"/>
<path d="M1392 3874 c-1 -14 2 -23 8 -19 12 7 14 45 2 45 -4 0 -9 -11 -10 -26z"/>
<path d="M1312 3846 c0 -25 4 -46 10 -46 6 0 8 17 5 40 -6 57 -15 60 -15 6z"/>
<path d="M1490 3870 c0 -11 6 -20 14 -20 9 0 12 7 9 20 -3 11 -9 20 -14 20 -5
0 -9 -9 -9 -20z"/>
<path d="M1730 3883 c0 -14 19 -38 25 -32 8 8 -5 39 -16 39 -5 0 -9 -3 -9 -7z"/>
<path d="M1428 3846 c-3 -14 -2 -26 2 -26 12 0 19 26 10 39 -5 9 -9 4 -12 -13z"/>
<path d="M2651 3849 c-35 -4 -71 -11 -80 -15 -9 -4 -22 -6 -28 -5 -7 1 -23 -4
-35 -10 -13 -7 -30 -13 -38 -14 -26 -3 -85 -17 -95 -23 -5 -4 -16 -7 -24 -9
-8 -1 -33 -11 -55 -21 -23 -11 -57 -26 -76 -32 -19 -7 -80 -34 -135 -60 -55
-26 -117 -53 -137 -59 -21 -7 -40 -16 -43 -21 -3 -5 -12 -7 -19 -4 -8 3 -17 1
-21 -5 -3 -6 -14 -11 -23 -11 -9 -1 -35 -9 -57 -20 -61 -30 -61 -30 -136 43
-24 23 -39 32 -39 23 0 -8 20 -31 45 -52 46 -37 54 -50 33 -51 -7 -1 -38 -10
-69 -21 -53 -19 -89 -16 -89 7 0 17 -31 83 -37 78 -3 -4 -3 -12 -1 -19 3 -7 5
-15 4 -18 0 -3 7 -18 17 -34 18 -27 18 -28 0 -41 -11 -9 -22 -10 -28 -4 -12
12 -38 12 -30 -1 3 -5 1 -10 -4 -10 -6 0 -11 5 -11 10 0 6 -7 10 -15 10 -9 0
-12 -6 -9 -15 10 -25 -50 -23 -79 3 -9 8 -20 12 -24 9 -4 -4 2 -13 12 -21 18
-13 17 -14 -11 -19 -16 -3 -36 -6 -44 -6 -260 -3 -328 3 -455 38 -80 22 -172
58 -189 72 -7 6 -58 -12 -75 -27 -6 -6 32 -94 41 -94 5 0 7 -4 4 -9 -3 -4 3
-19 14 -32 11 -13 23 -28 28 -34 4 -5 11 -18 15 -27 3 -10 11 -18 17 -18 5 0
10 -5 10 -10 0 -11 111 -120 122 -120 4 0 19 -11 34 -25 l28 -26 -25 -17 c-43
-31 -286 -117 -360 -127 -44 -7 -46 -8 -43 -37 2 -17 12 -37 21 -45 19 -14 74
-41 83 -39 3 1 19 -8 35 -20 30 -20 104 -53 137 -59 9 -2 31 -11 48 -20 18 -9
43 -15 56 -12 13 2 21 0 18 -4 -8 -14 20 -11 35 4 11 9 12 9 7 0 -7 -13 6 -18
79 -28 45 -7 429 -7 460 -1 11 3 30 5 43 5 16 1 21 5 16 14 -6 9 -4 9 8 -1 11
-9 29 -11 55 -6 81 14 311 74 373 97 36 13 80 29 98 35 17 7 46 18 62 24 37
15 57 5 79 -40 11 -21 22 -31 35 -29 13 1 25 -10 38 -35 23 -44 44 -52 25 -10
-6 15 -14 29 -18 32 -9 7 -31 50 -25 50 2 0 23 -27 47 -60 24 -33 47 -60 52
-60 4 0 7 -4 7 -10 0 -5 -9 -10 -19 -10 -11 0 -23 5 -26 10 -7 12 -26 14 -22
2 1 -4 -2 -8 -8 -10 -5 -1 -11 6 -13 18 -2 12 -11 20 -23 20 -16 0 -18 -3 -10
-19 13 -24 2 -29 -56 -26 -24 1 -43 -2 -43 -7 0 -4 -11 -3 -24 2 -13 5 -26 7
-27 5 -2 -2 -56 -6 -119 -10 -63 -4 -117 -9 -120 -10 -7 -4 -130 -18 -150 -17
-31 1 -236 -41 -262 -54 -15 -8 -35 -14 -44 -14 -29 0 -156 -70 -198 -110 -36
-35 -39 -40 -25 -57 13 -16 12 -17 -2 -5 -15 11 -18 9 -27 -18 -6 -17 -9 -37
-6 -45 8 -20 -1 -19 -26 3 -27 23 -84 57 -145 87 -47 22 -60 24 -190 21 -146
-2 -154 -4 -280 -67 -56 -28 -121 -109 -165 -204 -38 -82 -37 -79 -45 -258 -4
-106 -2 -153 9 -200 9 -34 17 -73 20 -87 6 -37 18 -63 38 -84 10 -11 18 -24
18 -28 0 -20 53 -86 65 -82 7 3 22 -9 33 -28 46 -75 210 -214 345 -292 37 -22
65 -41 63 -43 -2 -3 -22 7 -45 21 -22 14 -44 26 -49 26 -32 0 -292 216 -292
243 0 4 -4 7 -10 7 -23 0 -5 -26 66 -93 79 -75 145 -124 223 -168 119 -66 200
-106 238 -119 24 -7 50 -21 59 -32 16 -17 16 -18 -2 -18 -11 0 -35 -11 -54
-24 -19 -13 -54 -32 -76 -43 -23 -11 -48 -25 -55 -31 -8 -7 -29 -23 -46 -38
-18 -14 -33 -30 -33 -35 0 -6 -9 -22 -21 -38 -27 -37 -27 -98 0 -155 25 -51
58 -86 121 -129 25 -17 51 -39 58 -49 7 -10 22 -18 33 -18 10 0 19 -4 19 -9 0
-8 149 -85 240 -124 19 -9 58 -25 85 -37 28 -12 57 -24 65 -26 18 -4 139 -43
160 -51 8 -3 20 -7 25 -8 6 -2 63 -14 126 -29 64 -14 141 -28 170 -31 30 -4
77 -10 104 -15 138 -26 552 -28 695 -5 14 2 57 7 95 10 39 4 75 10 80 13 6 4
21 8 35 9 28 4 277 62 300 70 8 3 22 7 31 9 9 2 38 13 65 25 27 13 59 24 70
25 12 1 52 17 89 34 36 17 76 35 88 41 29 13 56 29 94 56 17 13 38 23 46 23 8
0 20 7 27 15 7 8 17 15 22 15 13 0 85 57 121 95 65 69 90 171 57 235 -28 54
-50 75 -139 130 -92 56 -162 90 -185 90 -8 0 -30 7 -48 15 -18 8 -66 24 -105
36 -64 19 -73 25 -73 45 0 13 5 24 11 24 6 0 9 6 6 14 -4 11 6 16 36 21 23 4
85 15 137 25 52 11 138 24 190 29 100 11 463 9 515 -3 17 -4 48 -11 70 -16 80
-19 163 -9 126 14 -5 3 -7 14 -4 25 3 13 -17 41 -70 97 -41 44 -101 109 -133
145 -59 66 -127 129 -138 129 -3 0 -37 24 -75 53 -38 28 -80 61 -95 71 -14 10
-26 22 -26 25 0 6 159 170 201 208 88 77 128 140 101 157 -5 3 -51 8 -103 11
-52 3 -123 8 -159 10 -36 3 -133 5 -216 5 -112 0 -151 3 -152 13 -1 6 -3 46
-4 87 -2 41 -7 81 -11 88 -5 6 -4 12 1 12 5 0 8 18 7 41 -3 56 11 81 67 119
26 18 59 50 74 71 15 22 30 39 33 39 4 0 22 31 39 69 43 92 56 219 26 253 -18
21 -18 22 -1 8 18 -13 19 -12 13 24 -4 21 -9 43 -13 49 -4 7 -7 23 -7 37 -1
20 -6 24 -22 22 -16 -2 -27 7 -43 33 -23 40 -26 62 -11 85 8 11 9 9 5 -11 -4
-16 -1 -32 7 -40 7 -8 13 -20 14 -26 2 -29 5 -33 19 -33 20 0 19 10 -6 62 -12
23 -29 58 -38 76 -8 17 -19 32 -24 32 -4 0 -5 5 -2 10 3 6 2 10 -2 10 -5 0
-10 12 -11 26 -1 15 -6 32 -11 38 -4 6 -9 18 -9 26 -3 34 -15 80 -21 80 -3 0
-7 17 -7 38 -2 50 -15 102 -25 102 -5 0 -9 5 -9 11 0 5 5 7 10 4 6 -3 10 0 10
7 -1 18 -28 53 -36 45 -9 -9 -44 11 -44 25 0 6 9 3 20 -7 11 -10 20 -14 20 -9
0 18 -134 112 -210 148 -114 53 -190 76 -295 92 -70 10 -308 12 -374 3z m104
-19 c-3 -5 -23 -10 -43 -10 -46 0 -250 -38 -274 -51 -11 -6 -18 -6 -18 0 0 5
42 19 93 32 78 18 118 25 235 38 7 0 10 -3 7 -9z m78 -6 c-5 -14 -3 -15 17 -4
12 7 20 8 17 3 -4 -6 10 -10 30 -11 44 -2 120 -10 148 -17 220 -50 337 -99
403 -168 82 -86 90 -96 79 -100 -9 -3 -9 -7 0 -18 7 -8 9 -26 6 -39 -4 -16 -3
-21 5 -16 8 5 10 -2 5 -25 -5 -27 -4 -31 10 -26 11 4 17 1 17 -9 0 -8 -4 -13
-9 -10 -10 7 -22 -30 -12 -39 3 -4 11 -25 16 -48 6 -24 17 -42 25 -42 7 0 15
-6 18 -14 3 -9 0 -11 -8 -6 -10 6 -11 2 -6 -19 8 -31 -8 -34 -43 -9 -18 12
-23 13 -19 2 2 -8 18 -21 35 -29 35 -17 60 -47 85 -102 12 -25 13 -38 6 -40
-19 -7 40 -58 60 -52 15 5 15 4 1 -5 -10 -7 -14 -21 -11 -46 4 -31 6 -34 21
-23 14 12 15 11 2 -5 -10 -13 -17 -15 -27 -6 -8 6 -14 17 -14 24 0 20 -94 100
-147 125 -127 60 -153 69 -204 74 -31 3 -78 10 -105 17 -27 6 -116 10 -199 10
-139 -1 -253 -17 -385 -55 -8 -2 -40 -11 -70 -20 -82 -22 -184 -57 -194 -67
-6 -5 -18 -9 -29 -9 -10 0 -43 -11 -74 -26 -31 -14 -70 -28 -87 -31 -17 -3
-35 -9 -41 -13 -5 -4 -57 -22 -115 -39 -58 -18 -114 -36 -125 -41 -64 -26
-433 -100 -585 -117 -112 -12 -300 -7 -400 10 -145 26 -232 49 -268 69 -18 10
-38 16 -43 13 -5 -4 -12 1 -15 9 -3 9 -15 16 -25 16 -10 0 -19 3 -19 8 0 4
-20 16 -44 27 -28 12 -40 23 -33 27 20 13 74 9 86 -6 7 -8 24 -17 39 -21 15
-4 50 -17 78 -30 46 -21 75 -29 142 -40 47 -7 10 12 -45 24 -32 7 -76 20 -98
31 -22 10 -57 26 -78 35 -45 19 -43 24 15 37 56 13 75 13 118 5 l35 -7 -29 14
-29 13 69 37 c85 45 118 72 108 87 -4 8 -3 9 4 5 21 -13 13 10 -11 32 -13 12
-27 19 -32 15 -4 -5 -5 -3 -2 3 6 11 -52 61 -66 56 -5 -1 -6 1 -3 6 6 10 -48
62 -65 62 -10 0 -10 3 -1 12 8 8 15 8 24 1 11 -8 103 -43 115 -43 2 0 3 4 3 8
0 5 -21 16 -48 25 -95 32 -117 42 -138 67 -12 14 -21 26 -19 28 2 2 21 -6 44
-17 47 -24 230 -76 215 -61 -6 6 -43 19 -84 31 -140 38 -232 94 -236 142 -2
23 7 22 88 -14 38 -17 76 -28 84 -25 8 3 14 2 14 -3 0 -13 49 -20 54 -7 2 6 5
3 5 -7 1 -13 8 -18 24 -16 12 1 36 -4 52 -11 40 -18 417 -20 422 -3 3 7 11 9
19 6 8 -3 20 0 28 6 7 6 15 8 19 5 3 -3 37 0 76 7 45 8 66 16 58 22 -7 5 -4 6
10 2 36 -10 249 52 345 101 26 13 52 24 58 24 6 0 54 21 108 46 224 106 335
154 357 154 9 0 24 4 33 9 26 14 239 50 310 52 34 1 62 7 62 12 0 5 -11 6 -25
3 -14 -4 -25 -2 -25 4 0 5 16 10 35 10 28 0 33 -3 28 -16z m101 8 c3 -5 -1 -9
-9 -9 -8 0 -12 4 -9 9 3 4 7 8 9 8 2 0 6 -4 9 -8z m53 -8 c-3 -3 -12 -4 -19
-1 -8 3 -5 6 6 6 11 1 17 -2 13 -5z m50 -10 c-3 -3 -12 -4 -19 -1 -8 3 -5 6 6
6 11 1 17 -2 13 -5z m74 -9 c12 -2 24 -7 28 -11 10 -11 -73 7 -84 18 -7 7 -3
8 12 4 12 -4 31 -9 44 -11z m-716 -45 c-3 -5 -11 -10 -16 -10 -6 0 -7 5 -4 10
3 6 11 10 16 10 6 0 7 -4 4 -10z m-45 -16 c0 -7 -66 -34 -82 -34 -7 1 3 9 22
19 36 19 60 25 60 15z m-105 -43 c-18 -17 -147 -71 -135 -56 6 8 20 17 31 20
11 4 16 11 13 17 -4 7 -2 8 4 4 6 -3 26 0 44 8 39 17 56 20 43 7z m-181 -86
c-22 -17 -34 -19 -34 -6 0 5 8 12 18 14 32 9 36 7 16 -8z m-44 -19 c0 -2 -7
-7 -16 -10 -8 -3 -12 -2 -9 4 6 10 25 14 25 6z m-45 -26 c-3 -5 -10 -10 -16
-10 -5 0 -9 5 -9 10 0 6 7 10 16 10 8 0 12 -4 9 -10z m-35 -6 c0 -6 -102 -53
-142 -65 -17 -4 -28 -4 -28 2 0 5 7 9 15 9 14 0 39 9 115 43 42 19 40 18 40
11z m-240 -94 c-30 -11 -61 -20 -70 -19 -20 1 80 37 105 38 11 0 -5 -9 -35
-19z m-955 -30 c3 -6 -1 -7 -9 -4 -18 7 -21 14 -7 14 6 0 13 -4 16 -10z m865
6 c0 -2 -7 -7 -16 -10 -8 -3 -12 -2 -9 4 6 10 25 14 25 6z m-620 -40 c0 -2 -7
-7 -16 -10 -8 -3 -12 -2 -9 4 6 10 25 14 25 6z m2604 -106 c5 -32 5 -33 -5
-10 -6 14 -15 33 -20 42 -13 26 -11 34 5 18 8 -8 17 -31 20 -50z m61 -158 c-8
-9 -25 10 -25 28 0 10 -4 22 -10 25 -5 3 -10 12 -10 18 0 7 12 -6 25 -28 13
-21 22 -41 20 -43z m-575 -17 c-10 -13 -9 -15 11 -14 30 1 159 -18 181 -26 19
-7 13 -44 -10 -61 -8 -6 -12 -16 -8 -22 3 -6 -3 -13 -14 -17 -11 -3 -20 -13
-20 -21 0 -8 -7 -17 -15 -20 -8 -4 -15 -10 -15 -14 0 -5 -20 -29 -45 -54 -25
-26 -45 -52 -45 -58 0 -6 -3 -9 -6 -5 -3 3 -16 -3 -27 -14 -12 -11 -46 -32
-77 -47 -30 -16 -64 -33 -75 -39 -11 -6 -33 -16 -50 -23 -16 -7 -38 -16 -47
-21 -31 -16 -53 -10 -65 18 -7 15 -13 30 -13 34 0 4 -16 35 -35 69 -19 34 -35
67 -35 73 0 7 -30 44 -65 84 -70 77 -71 84 -4 97 13 2 58 12 99 21 124 28 161
34 260 41 59 4 101 11 110 20 19 19 26 18 10 -1z m-97 -2 c-7 -2 -21 -2 -30 0
-10 3 -4 5 12 5 17 0 24 -2 18 -5z m202 -3 c-3 -5 -14 -10 -23 -9 -14 0 -13 2
3 9 27 11 27 11 20 0z m-296 -4 c-10 -9 -79 -14 -74 -5 4 5 22 9 42 9 20 0 34
-2 32 -4z m-149 -25 c0 -9 -35 -21 -60 -20 -8 0 -1 7 15 14 36 17 45 18 45 6z
m666 -17 c17 -14 17 -15 1 -10 -10 3 -27 6 -38 6 -10 0 -19 5 -19 10 0 15 34
12 56 -6z m-79 -20 c-3 -3 -12 -4 -19 -1 -8 3 -5 6 6 6 11 1 17 -2 13 -5z m75
-8 c25 -6 26 -7 13 -33 -7 -16 -23 -49 -34 -75 -12 -26 -26 -50 -31 -53 -6 -4
-8 -11 -4 -16 9 -15 64 75 69 111 0 3 8 16 17 29 16 23 18 23 42 7 14 -9 34
-16 46 -16 26 0 28 -12 9 -73 -6 -21 -5 -27 4 -24 7 2 12 11 12 20 0 8 4 19 8
23 4 4 7 17 7 28 0 19 3 18 30 -11 16 -17 35 -33 42 -35 10 -4 9 -14 -5 -48
-9 -24 -15 -45 -13 -48 10 -10 26 11 26 34 0 15 6 24 15 24 13 0 14 -4 5 -21
-14 -25 -6 -36 13 -20 12 9 14 5 11 -29 -3 -31 0 -40 12 -40 8 0 13 -4 9 -9
-3 -5 -1 -12 4 -15 12 -8 -8 -95 -28 -123 -9 -12 -22 -23 -30 -23 -8 0 -11 -6
-7 -17 4 -10 -1 -23 -14 -35 -11 -11 -18 -22 -16 -27 3 -4 -9 -8 -25 -9 -16
-1 -29 1 -29 5 0 5 23 33 51 63 46 50 77 103 71 123 -1 4 2 7 8 7 5 0 10 9 10
20 0 11 -4 20 -10 20 -5 0 -10 -7 -10 -15 0 -26 -42 -106 -54 -102 -14 5 -8
37 11 59 8 9 12 22 8 28 -4 6 -1 17 5 25 7 8 9 15 6 15 -4 0 -2 9 5 21 8 15 8
24 0 32 -8 8 -11 7 -13 -3 -2 -22 -4 -33 -11 -50 -3 -8 -8 -26 -11 -40 -3 -14
-12 -34 -19 -45 -13 -16 -17 -17 -31 -6 -14 12 -14 16 -3 30 7 9 19 30 27 46
8 17 21 38 29 48 13 16 12 17 -10 14 -13 -2 -24 -10 -25 -18 -1 -44 -39 -99
-62 -91 -7 2 -2 14 13 30 14 15 25 37 25 49 0 12 5 25 10 28 6 3 10 11 10 16
0 20 -20 -3 -39 -45 -22 -51 -34 -60 -66 -52 -22 6 -23 9 -13 34 7 15 20 37
31 49 10 12 16 26 13 32 -4 5 -2 12 4 16 13 8 13 25 -1 25 -5 0 -7 -4 -4 -10
3 -5 1 -10 -5 -10 -6 0 -10 -6 -8 -13 2 -6 -7 -26 -20 -44 -12 -17 -22 -36
-22 -42 0 -14 -27 -14 -35 -1 -4 6 -1 17 5 25 7 9 8 15 2 15 -5 0 -29 -27 -53
-60 -46 -62 -56 -67 -108 -49 -38 13 -39 23 -6 45 28 18 90 104 75 104 -11 0
-50 -54 -50 -69 0 -6 -4 -11 -9 -11 -14 0 -81 -57 -74 -64 3 -3 -3 -6 -15 -6
-12 0 -22 -4 -22 -9 0 -20 -36 -20 -120 1 l-89 21 37 20 c20 10 41 23 47 28 5
5 16 9 25 9 8 0 -4 -10 -27 -22 -24 -12 -43 -26 -43 -31 0 -9 56 22 105 59 83
62 224 224 195 224 -5 0 -10 4 -10 9 0 5 8 8 17 7 10 0 22 8 27 20 5 12 17 20
25 18 9 -1 28 -5 43 -8z m84 -2 c18 -14 18 -15 -6 -8 -31 8 -50 24 -29 24 8 0
24 -7 35 -16z m-2706 -23 c0 -5 -15 -15 -32 -22 -52 -20 -112 -39 -123 -38
-17 0 39 28 57 29 10 0 32 9 50 20 36 22 48 25 48 11z m2760 -1 c13 -8 13 -10
-2 -10 -9 0 -20 5 -23 10 -8 13 5 13 25 0z m-1012 -17 c15 -10 32 -24 39 -33
6 -8 25 -31 43 -50 17 -19 45 -62 61 -95 16 -33 33 -67 38 -75 35 -65 40 -90
18 -90 -12 0 -57 86 -57 109 0 6 -4 11 -10 11 -15 0 -12 -14 12 -60 19 -34 20
-43 8 -50 -8 -5 -18 -7 -22 -4 -4 3 -29 6 -54 7 -37 1 -53 8 -75 30 -16 16
-29 30 -29 33 0 8 -80 84 -90 84 -5 0 -13 6 -17 13 -4 7 -35 33 -67 58 l-59
44 40 11 c22 7 53 18 69 27 16 8 48 18 70 22 39 6 44 4 77 -32 39 -42 100
-128 110 -155 3 -10 11 -18 17 -18 24 0 -73 146 -135 202 -34 31 -28 36 13 11z
m743 -40 c-14 -26 -157 -169 -176 -177 -9 -3 25 35 74 84 50 49 91 94 91 100
0 5 5 10 10 10 7 0 7 -6 1 -17z m474 -31 c-3 -3 -11 0 -18 7 -9 10 -8 11 6 5
10 -3 15 -9 12 -12z m-1436 -42 c6 0 11 -5 11 -10 0 -6 7 -13 15 -17 22 -8 79
-58 142 -123 53 -55 65 -74 39 -64 -8 3 -50 7 -93 9 -104 4 -103 4 -103 15 0
10 -90 129 -122 162 -10 10 -23 18 -30 18 -20 0 9 24 45 36 27 9 36 8 59 -7
14 -11 31 -19 37 -19z m1426 -20 c3 -6 -1 -7 -9 -4 -18 7 -21 14 -7 14 6 0 13
-4 16 -10z m-1548 -44 c0 -11 -4 -12 -18 -3 -10 6 -16 14 -13 19 7 11 31 -1
31 -16z m1543 10 c0 -3 -4 -8 -10 -11 -5 -3 -10 -1 -10 4 0 6 5 11 10 11 6 0
10 -2 10 -4z m-1860 -26 c0 -5 -5 -10 -11 -10 -5 0 -7 5 -4 10 3 6 8 10 11 10
2 0 4 -4 4 -10z m-40 -20 c-8 -5 -19 -10 -25 -10 -5 0 -3 5 5 10 8 5 20 10 25
10 6 0 3 -5 -5 -10z m1925 0 c-3 -5 -12 -10 -18 -10 -7 0 -6 4 3 10 19 12 23
12 15 0z m-2065 -30 c0 -5 -5 -10 -11 -10 -5 0 -7 5 -4 10 3 6 8 10 11 10 2 0
4 -4 4 -10z m-125 -10 c-3 -5 -18 -9 -33 -9 l-27 1 30 8 c17 4 31 8 33 9 2 0
0 -3 -3 -9z m59 -19 c-2 -3 -12 3 -22 13 -16 17 -16 18 5 5 12 -7 20 -15 17
-18z m1788 -26 c-38 -46 -58 -57 -71 -42 -7 9 1 24 30 56 33 35 42 41 54 31
13 -11 11 -17 -13 -45z m-1912 34 c0 -6 -6 -9 -12 -6 -7 2 -22 0 -33 -5 -20
-9 -20 -9 -1 6 23 18 46 21 46 5z m2000 -30 c25 -14 36 -27 33 -38 -7 -26 -93
-79 -93 -56 0 3 17 20 37 39 21 19 35 38 31 41 -4 4 -23 -9 -42 -29 -38 -39
-43 -41 -65 -27 -16 10 -13 17 33 69 24 27 20 27 66 1z m-217 -31 c18 -9 18
-11 -5 -26 -12 -9 -26 -21 -30 -26 -5 -8 -8 -7 -8 1 0 6 -16 17 -35 24 -41 15
-43 22 -12 37 23 10 58 7 90 -10z m-233 -4 c30 -4 58 -7 63 -6 4 1 7 -2 7 -8
0 -5 -16 -12 -35 -16 -19 -3 -38 -10 -41 -15 -3 -5 -9 -7 -13 -5 -6 4 -111 19
-138 19 -7 0 -13 2 -13 4 0 9 86 41 100 38 8 -2 40 -7 70 -11z m-731 -21 c2
-2 -3 -3 -11 -3 -9 0 -19 7 -22 16 -6 15 -4 15 11 3 10 -7 20 -15 22 -16z
m-184 7 c-3 -5 -12 -10 -18 -10 -7 0 -6 4 3 10 19 12 23 12 15 0z m55 0 c0 -5
-9 -10 -21 -10 -11 0 -17 5 -14 10 3 6 13 10 21 10 8 0 14 -4 14 -10z m86 -3
c4 -3 -4 -4 -16 -2 -30 6 -40 16 -12 12 12 -2 24 -6 28 -10z m193 -3 c3 -2
-28 -4 -68 -3 -40 1 -68 5 -61 9 12 7 121 3 129 -6z m1111 1 c0 -8 -4 -15 -8
-15 -4 0 -16 -13 -25 -30 -17 -28 -45 -39 -61 -23 -8 8 64 82 82 83 6 0 12 -7
12 -15z m-1493 -1 c-3 -3 -12 -4 -19 -1 -8 3 -5 6 6 6 11 1 17 -2 13 -5z
m1248 -15 c0 -9 -13 -15 -35 -17 l-35 -3 25 20 c27 22 45 22 45 0z m-1455 0
c0 -8 6 -7 17 2 11 10 14 10 9 2 -4 -8 -1 -13 9 -13 10 0 13 5 9 12 -5 7 -3 8
6 3 7 -5 69 -7 137 -6 l123 2 0 -25 c0 -35 18 -33 22 2 l4 27 11 -25 c6 -14 8
-28 4 -32 -3 -4 -92 -10 -196 -13 -105 -3 -210 -8 -235 -10 -25 -3 -65 -7 -90
-10 -45 -4 -202 -33 -295 -55 -65 -15 -134 -48 -163 -78 -26 -27 -22 -60 11
-89 24 -21 195 -89 248 -98 18 -3 35 -8 39 -10 3 -2 37 -6 74 -9 38 -4 71 -8
75 -10 3 -2 45 -7 93 -10 47 -4 96 -9 108 -11 21 -4 369 -19 400 -17 8 0 94 3
190 5 96 3 200 7 230 11 30 3 75 8 100 11 49 5 55 6 206 29 146 22 278 76 317
129 16 21 17 27 5 46 -15 26 -102 71 -135 71 -13 0 -23 4 -23 8 0 4 -8 8 -17
9 -10 1 -45 8 -78 17 -33 8 -79 17 -102 20 -23 2 -46 7 -52 10 -5 3 -33 9 -63
12 -29 3 -60 7 -69 10 -16 4 -32 41 -24 54 4 6 178 -14 205 -24 8 -3 29 -7 45
-10 17 -3 58 -12 93 -21 35 -9 67 -13 72 -10 6 4 10 2 10 -4 0 -5 25 -19 55
-30 73 -27 149 -68 167 -89 31 -36 28 -60 -12 -102 -21 -22 -41 -40 -44 -40
-3 0 -34 -13 -68 -28 -64 -29 -124 -47 -195 -58 -21 -3 -63 -11 -93 -19 -61
-15 -129 -27 -175 -31 -160 -14 -284 -18 -540 -18 -265 -1 -341 3 -485 21 -19
2 -62 6 -95 8 -68 5 -304 55 -380 80 -66 22 -142 64 -175 95 -29 27 -45 60
-30 60 5 0 12 10 15 23 10 36 85 85 191 123 110 39 113 40 181 49 26 4 64 11
83 16 20 5 65 11 100 15 36 3 83 7 105 9 60 6 62 6 35 15 l-25 8 28 1 c15 1
27 -4 27 -10z m783 -9 c30 0 50 -15 55 -41 2 -13 -7 -18 -37 -21 -22 -2 -38
-2 -36 0 1 2 -8 15 -20 28 -23 25 -24 67 -2 45 6 -6 24 -11 40 -11z m549 0
c23 -11 48 -20 55 -20 7 0 13 -6 13 -13 0 -9 -16 -14 -47 -15 l-48 -2 25 19
c24 19 10 25 -18 7 -18 -11 -132 3 -132 17 0 6 3 8 6 4 3 -3 22 1 42 8 50 18
57 18 104 -5z m-941 -23 c9 -35 -8 -36 -21 -1 -13 33 -13 37 2 32 7 -3 15 -16
19 -31z m70 20 c8 -7 18 -20 22 -29 5 -15 1 -18 -29 -18 -28 0 -36 5 -44 26
-6 14 -10 27 -10 30 0 9 46 3 61 -9z m249 -12 c12 -13 20 -27 17 -32 -3 -5
-52 -7 -109 -5 -92 3 -105 5 -120 25 -9 12 -14 25 -12 29 3 4 49 7 103 7 91 0
100 -2 121 -24z m157 18 c-4 -3 -2 -12 4 -19 6 -8 9 -20 6 -28 -4 -9 1 -17 11
-19 13 -4 12 -5 -5 -6 -26 -1 -52 57 -31 71 16 9 24 10 15 1z m858 -15 c-9
-29 -44 -68 -62 -68 -20 0 -16 12 19 53 36 42 53 48 43 15z m-1985 2 c-8 -5
-19 -10 -25 -10 -5 0 -3 5 5 10 8 5 20 10 25 10 6 0 3 -5 -5 -10z m1270 0 c0
-5 -2 -10 -4 -10 -3 0 -8 5 -11 10 -3 6 -1 10 4 10 6 0 11 -4 11 -10z m514 2
c3 -5 -8 -19 -24 -31 -24 -17 -30 -19 -30 -6 0 8 -5 15 -11 15 -8 0 -8 5 1 15
13 16 55 20 64 7z m-77 -60 c-10 -9 -23 -12 -38 -7 l-23 8 23 18 c19 15 27 17
38 8 12 -11 12 -14 0 -27z m100 20 c-15 -10 -24 -22 -20 -25 3 -4 1 -7 -4 -7
-21 0 -20 25 1 37 34 20 54 15 23 -5z m58 -13 c4 -6 -1 -17 -11 -24 -23 -17
-25 -17 -44 -5 -13 9 -12 12 4 25 23 18 42 19 51 4z m-858 -15 c-3 -3 -12 -4
-19 -1 -8 3 -5 6 6 6 11 1 17 -2 13 -5z m88 -4 c3 -5 1 -10 -4 -10 -6 0 -11 5
-11 10 0 6 2 10 4 10 3 0 8 -4 11 -10z m565 -14 c0 -2 -9 -2 -20 1 -11 3 -20
9 -20 15 0 5 9 4 20 -2 11 -6 20 -12 20 -14z m98 12 c-5 -16 -48 -24 -48 -10
0 11 17 20 38 21 8 1 12 -5 10 -11z m-1321 -4 c-3 -3 -12 -4 -19 -1 -8 3 -5 6
6 6 11 1 17 -2 13 -5z m1473 -12 c0 -4 -11 -12 -25 -18 -31 -15 -42 6 -11 23
20 11 36 9 36 -5z m-1369 -36 c-24 -61 -58 -80 -149 -82 -88 -2 -250 -13 -272
-19 -8 -2 -30 -7 -49 -10 -19 -3 -42 -10 -52 -16 -11 -5 -19 -7 -19 -3 0 3 -7
1 -15 -6 -8 -7 -15 -8 -15 -3 0 9 -27 3 -120 -26 -15 -4 -42 -3 -65 4 -34 10
-37 13 -20 20 11 4 34 12 50 18 17 6 37 13 45 14 8 1 33 4 55 7 22 3 56 11 75
17 19 6 55 13 80 15 45 6 81 24 47 24 -32 0 -302 -58 -337 -73 -63 -26 -80
-29 -80 -15 0 14 112 53 235 82 61 15 183 31 310 41 38 3 74 10 80 16 7 8 0 9
-25 6 -19 -3 -80 -9 -135 -12 -55 -4 -108 -11 -118 -16 -9 -6 -22 -7 -27 -4
-8 5 -121 -18 -160 -32 -8 -4 -19 -7 -25 -8 -5 0 -17 -4 -25 -7 -22 -9 -118
-38 -124 -38 -3 0 -6 3 -6 8 0 20 134 72 225 87 66 11 77 13 150 21 101 10
125 12 280 19 77 4 141 8 142 9 1 1 20 2 41 1 l38 0 -15 -39z m77 28 c5 -10 3
-32 -5 -59 -13 -38 -19 -43 -49 -47 -41 -5 -52 6 -31 30 14 17 29 49 31 65 1
8 27 27 38 27 4 0 11 -7 16 -16z m54 1 c2 2 21 7 42 10 41 7 71 -9 61 -33 -6
-17 3 -34 15 -27 6 3 5 16 0 30 -11 29 -16 28 97 29 44 1 79 -3 76 -7 -2 -4 8
-5 23 -3 41 8 71 -16 79 -64 4 -22 11 -42 16 -46 21 -13 6 -21 -28 -15 -21 4
-54 6 -73 5 -19 0 -39 1 -44 4 -5 2 -76 6 -158 8 -82 1 -152 4 -154 7 -2 2 1
29 7 60 9 43 15 55 24 47 6 -5 14 -8 17 -5z m1143 3 c5 4 5 1 1 -5 -4 -7 -22
-13 -39 -13 -30 1 -31 1 -13 15 13 10 23 11 31 5 7 -5 16 -6 20 -2z m-653 -35
c-2 -13 1 -23 7 -23 6 0 11 9 11 21 0 19 4 20 53 15 29 -3 75 -10 103 -17 68
-16 97 -17 112 -6 7 5 15 7 19 3 3 -3 1 -6 -5 -6 -7 0 -12 -4 -12 -9 0 -5 10
-9 23 -9 27 0 129 -29 164 -47 14 -7 31 -12 37 -11 6 2 8 1 4 -1 -4 -2 -4 -11
-1 -19 7 -19 -16 -18 -75 5 -67 27 -156 43 -142 26 6 -7 29 -15 53 -18 46 -6
137 -43 137 -55 0 -10 -100 -31 -105 -22 -2 4 -18 5 -35 2 -16 -2 -37 1 -45 8
-8 6 -19 9 -24 6 -5 -4 -12 -3 -15 2 -3 5 -19 7 -36 6 -18 -1 -46 2 -63 8 -30
9 -49 13 -106 21 -26 4 -39 28 -36 65 1 12 -2 22 -6 22 -12 0 -17 -24 -8 -42
6 -11 5 -19 -3 -24 -6 -4 -14 -2 -16 5 -3 9 -7 9 -18 0 -11 -9 -18 -8 -29 1
-9 7 -13 15 -11 17 2 3 -4 24 -14 48 -10 24 -16 45 -13 48 3 3 26 5 52 4 43
-2 47 -4 43 -24z m778 13 c0 -16 -27 -29 -41 -20 -15 9 -10 22 9 27 29 8 32 7
32 -7z m-555 -6 c3 -5 1 -10 -4 -10 -6 0 -11 5 -11 10 0 6 2 10 4 10 3 0 8 -4
11 -10z m459 1 c7 -11 -22 -23 -36 -15 -6 4 -5 10 3 15 18 11 26 11 33 0z
m-417 -7 c-3 -3 -12 -4 -19 -1 -8 3 -5 6 6 6 11 1 17 -2 13 -5z m543 3 c0 -2
-10 -12 -21 -23 -22 -19 -22 -19 -8 4 12 19 29 30 29 19z m-76 -26 c6 -10 -33
-20 -52 -13 -7 2 -10 8 -6 13 7 12 51 12 58 0z m-2184 -31 c0 -5 -8 -10 -17
-10 -15 0 -16 2 -3 10 19 12 20 12 20 0z m2200 5 c0 -2 -9 -9 -20 -15 -12 -6
-20 -7 -20 -1 0 5 8 12 18 14 9 3 18 5 20 6 1 0 2 -1 2 -4z m-2757 -12 c-7 -2
-19 -2 -25 0 -7 3 -2 5 12 5 14 0 19 -2 13 -5z m143 -23 c69 -30 49 -33 -36
-5 -58 19 -68 24 -43 25 17 0 53 -9 79 -20z m-98 -6 c77 -10 210 -79 219 -115
3 -10 9 -19 13 -19 4 0 12 -12 19 -27 10 -22 2 -17 -39 23 -29 29 -75 65 -103
80 -53 29 -150 49 -144 31 2 -6 14 -11 28 -13 73 -6 134 -39 201 -107 32 -32
61 -69 64 -82 3 -14 11 -22 17 -18 6 3 7 1 3 -5 -11 -18 -26 -14 -26 6 0 20
-126 149 -136 140 -3 -4 20 -32 51 -63 62 -62 96 -126 99 -186 0 -22 5 -39 9
-39 5 0 5 -6 0 -12 -12 -20 -12 -38 -1 -38 7 0 6 -5 -1 -14 -8 -10 -9 -16 -1
-21 5 -3 10 -13 10 -21 0 -12 -4 -12 -20 -4 -21 11 -55 76 -64 120 -19 95 -77
172 -156 208 -78 36 -200 43 -256 14 -54 -28 -114 -89 -149 -153 -24 -44 -29
-66 -31 -136 -2 -52 2 -98 11 -123 7 -21 16 -51 18 -67 12 -69 31 -130 48
-148 10 -11 24 -32 32 -47 27 -52 114 -150 216 -242 17 -16 30 -31 27 -33 -16
-17 -195 129 -224 182 -6 11 -14 17 -17 13 -18 -17 108 -146 190 -194 27 -16
59 -34 70 -39 11 -6 29 -27 40 -48 11 -20 26 -37 33 -37 6 0 12 -6 12 -13 0
-46 208 -177 379 -237 l104 -37 20 -54 c11 -30 26 -61 33 -70 38 -43 -6 -52
-70 -15 -23 13 -65 51 -94 85 -30 34 -58 61 -63 61 -6 0 -7 -5 -3 -12 4 -7 3
-8 -5 -4 -6 4 -9 11 -7 15 6 10 -34 48 -94 88 -87 59 -252 154 -270 156 -10 1
-18 5 -17 10 1 5 -7 14 -18 20 -177 105 -274 195 -365 343 -38 63 -70 121 -70
128 0 8 -4 17 -9 20 -4 3 -14 34 -20 68 -7 35 -17 82 -23 105 -18 71 -15 183
6 268 7 30 65 146 86 173 47 59 154 121 255 146 18 4 104 0 183 -10z m468 -10
c-3 -9 -6 -21 -6 -27 0 -8 -3 -8 -10 -1 -12 12 -3 44 12 44 6 0 7 -7 4 -16z
m-816 -19 c-7 -9 -15 -13 -19 -10 -3 3 1 10 9 15 21 14 24 12 10 -5z m835 -25
c3 -5 -1 -10 -10 -10 -9 0 -13 5 -10 10 3 6 8 10 10 10 2 0 7 -4 10 -10z
m-876 -2 c-2 -2 -17 -14 -33 -28 -16 -14 -25 -18 -21 -10 16 27 30 39 44 40 8
0 12 -1 10 -2z m949 -24 c18 -3 29 -14 13 -14 -7 0 -9 -4 -6 -10 10 -16 -11
-12 -25 5 -7 8 -20 15 -29 15 -13 0 -14 2 -1 9 8 6 19 7 25 3 5 -3 16 -7 23
-8z m-307 -31 c13 -16 12 -17 -3 -4 -10 7 -18 15 -18 17 0 8 8 3 21 -13z
m2417 -9 c0 -17 -3 -22 -8 -13 -5 6 -6 18 -3 26 8 19 11 16 11 -13z m-2339
-46 c1 -5 -3 -8 -9 -8 -5 0 -10 12 -9 28 0 24 1 25 9 7 5 -11 9 -23 9 -27z
m31 -8 c0 -11 -4 -20 -10 -20 -5 0 -10 9 -10 20 0 11 5 20 10 20 6 0 10 -9 10
-20z m2286 13 c-4 -5 -10 -7 -12 -5 -2 1 -13 -7 -24 -18 -11 -11 -27 -20 -36
-20 -8 0 -13 -4 -10 -9 3 -4 -6 -7 -21 -5 -16 1 -39 -7 -58 -22 -26 -20 -34
-22 -38 -10 -6 15 74 56 110 56 10 0 24 9 31 20 7 12 23 20 39 20 14 0 23 -3
19 -7z m-2781 -17 c-33 -7 -76 -20 -95 -30 -19 -10 -30 -13 -23 -6 23 25 89
48 133 48 l45 0 -60 -12z m630 -7 c16 -16 -20 -10 -41 7 -18 14 -18 15 6 8 14
-3 29 -10 35 -15z m-78 -22 c-7 -21 -32 -13 -35 11 -3 21 -1 22 18 12 12 -6
19 -17 17 -23z m-437 3 c0 -4 -12 -10 -27 -13 -63 -13 -143 -103 -143 -161 0
-15 11 -54 25 -88 14 -34 25 -65 25 -70 0 -5 9 -28 20 -50 11 -23 20 -53 20
-67 0 -14 7 -53 15 -86 26 -103 39 -275 22 -275 -5 0 -6 -7 -3 -16 9 -23 -81
44 -100 75 l-16 26 23 -23 c59 -57 89 -74 89 -52 0 6 -5 10 -12 10 -19 0 -129
121 -170 188 -21 35 -46 85 -54 110 -8 26 -18 54 -21 62 -3 8 -6 18 -5 22 1 4
-2 38 -7 77 -21 168 38 292 159 332 30 10 160 9 160 -1z m613 -10 c5 -4 -3 -5
-17 -3 -15 3 -29 10 -32 15 -7 11 36 1 49 -12z m2044 7 c-15 -6 -26 -15 -24
-21 5 -16 37 -15 47 2 11 21 15 -2 11 -80 -1 -32 -12 -15 -13 21 -1 17 -5 31
-9 31 -4 0 -7 -13 -7 -29 1 -38 -6 -48 -42 -53 -18 -3 -27 -1 -22 4 5 5 8 33
5 63 -4 51 -3 53 24 63 38 14 65 13 30 -1z m-2562 -5 c6 -4 21 -21 35 -37 23
-27 21 -27 -15 5 -22 19 -42 36 -44 38 -2 1 0 2 5 2 5 0 14 -4 19 -8z m402 -4
c44 -19 62 -55 22 -43 -12 4 -28 8 -35 9 -21 3 -37 23 -30 35 9 14 9 14 43 -1z
m1949 3 c-8 -12 -46 -21 -46 -11 0 5 8 11 18 13 29 8 33 7 28 -2z m-2943 -16
c-3 -9 -8 -14 -10 -11 -3 3 -2 9 2 15 9 16 15 13 8 -4z m873 -10 c1 -14 -2
-22 -7 -19 -11 6 -12 44 -1 44 4 0 8 -11 8 -25z m332 8 c15 -3 44 -7 65 -8 20
-1 43 -7 50 -14 10 -10 3 -11 -33 -6 -122 18 -160 26 -160 36 0 9 16 7 78 -8z
m-678 -1 c0 -5 -16 -16 -36 -25 -19 -10 -40 -22 -47 -27 -7 -5 -27 -22 -45
-36 l-33 -26 12 26 c12 25 80 73 124 88 11 3 21 6 23 7 1 1 2 -3 2 -7z m2318
-7 c-4 -4 -25 -8 -133 -25 -38 -6 -83 -13 -100 -16 -18 -3 -26 -1 -20 5 6 5
48 14 95 20 47 6 99 14 115 19 27 8 52 6 43 -3z m-1934 -1 c23 -9 21 -57 -1
-52 -12 2 -18 13 -18 31 -1 15 0 27 1 27 1 0 9 -3 18 -6z m381 -40 c61 -9 137
-16 170 -17 33 -1 63 -6 66 -10 6 -8 346 -21 534 -21 96 0 363 12 415 19 14 1
66 6 115 10 50 3 131 15 180 25 87 17 105 17 105 1 0 -9 -89 -30 -147 -36 -21
-2 -69 -7 -108 -11 -38 -3 -81 -8 -95 -9 -37 -3 -40 -4 -40 -15 0 -5 6 -7 13
-5 6 3 37 7 67 10 77 6 216 22 269 31 43 7 44 7 39 -19 -4 -19 -1 -27 8 -27
10 0 13 10 12 31 -3 28 1 32 23 36 24 3 27 0 31 -32 4 -38 3 -39 -67 -50 -39
-5 -131 -26 -300 -65 -44 -10 -116 -26 -160 -36 -90 -18 -107 -22 -255 -57
-58 -14 -141 -32 -185 -41 -44 -9 -111 -22 -150 -30 -38 -8 -77 -14 -85 -14
-8 0 -37 -3 -65 -6 -276 -35 -563 -46 -607 -24 -36 17 -19 30 30 23 79 -11
327 -14 343 -4 9 5 -40 9 -130 9 -80 0 -171 5 -203 12 -55 11 -58 14 -58 41 0
29 1 29 40 24 22 -3 40 -2 40 3 0 9 -36 20 -67 20 -18 0 -23 6 -23 25 0 28 2
29 50 14 19 -6 46 -12 60 -13 14 -2 50 -7 80 -11 30 -4 51 -4 47 1 -4 5 -18
10 -30 11 -43 5 -122 20 -137 26 -8 3 -27 8 -42 11 -24 6 -28 11 -28 41 0 19
2 35 4 35 2 0 31 -7 63 -15 32 -8 74 -17 93 -21 19 -3 44 -8 55 -10 61 -12
278 -35 283 -30 10 10 -2 14 -73 20 -38 4 -90 9 -115 12 -60 8 -279 52 -291
59 -5 4 -9 20 -9 37 0 22 4 29 14 25 47 -18 167 -39 300 -53 33 -3 69 -8 80
-11 32 -7 242 -16 236 -10 -3 3 -41 9 -85 12 -44 3 -91 8 -105 10 -14 2 -65 9
-115 15 -49 6 -97 13 -105 15 -8 2 -44 7 -79 10 -81 8 -141 31 -141 54 0 16 5
17 63 4 34 -8 112 -21 172 -29z m1791 -1 c4 -44 -11 -63 -52 -63 -14 0 -15 3
-6 12 14 14 16 28 4 28 -5 0 -14 -11 -20 -25 -12 -26 -41 -34 -43 -12 0 6 -2
24 -3 39 -1 22 4 30 25 37 30 10 40 6 32 -15 -3 -8 -1 -14 5 -14 15 0 21 22
11 41 -6 13 -3 16 18 15 22 -1 26 -6 29 -43z m-2506 29 c0 -5 -24 -19 -52 -32
-29 -13 -74 -45 -100 -71 -34 -35 -48 -44 -52 -33 -5 14 42 74 58 74 4 0 22
10 39 23 65 45 107 61 107 39z m2370 -1 c0 -10 -24 -21 -46 -21 -8 0 -11 6 -8
15 6 16 54 21 54 6z m-1580 -11 c0 -5 -7 -7 -15 -4 -8 4 -15 8 -15 10 0 2 7 4
15 4 8 0 15 -4 15 -10z m35 -8 c-3 -3 -11 0 -18 7 -9 10 -8 11 6 5 10 -3 15
-9 12 -12z m-392 -4 c17 -8 27 -21 27 -35 0 -31 -9 -33 -57 -12 -34 14 -40 21
-36 38 6 24 27 27 66 9z m522 2 c38 -6 73 -14 78 -19 4 -4 -16 -4 -45 0 -29 5
-68 10 -86 11 -18 1 -35 5 -38 10 -7 10 5 10 91 -2z m-921 -8 c2 -4 -9 -14
-27 -22 -37 -16 -58 -32 -116 -87 -45 -45 -56 -50 -66 -33 -9 14 84 110 106
110 11 0 19 4 19 8 0 8 45 29 67 31 6 1 14 -3 17 -7z m233 -29 c-3 -10 -5 -4
-5 12 0 17 2 24 5 18 2 -7 2 -21 0 -30z m1653 23 c0 -2 -21 -3 -47 -3 -44 -1
-45 0 -13 6 30 6 60 4 60 -3z m58 7 c-10 -2 -26 -2 -35 0 -10 3 -2 5 17 5 19
0 27 -2 18 -5z m-858 -14 c0 -4 -16 -6 -35 -6 -19 1 -35 5 -35 9 0 5 16 8 35
6 19 -1 35 -5 35 -9z m-819 -72 c-8 -8 -11 2 -10 34 l1 44 10 -34 c6 -23 6
-37 -1 -44z m877 66 c-10 -2 -26 -2 -35 0 -10 3 -2 5 17 5 19 0 27 -2 18 -5z
m127 -2 c-6 -6 -87 -2 -94 5 -3 2 19 4 47 3 29 -1 50 -5 47 -8z m82 3 c-3 -3
-12 -4 -19 -1 -8 3 -5 6 6 6 11 1 17 -2 13 -5z m136 -1 c-7 -2 -19 -2 -25 0
-7 3 -2 5 12 5 14 0 19 -2 13 -5z m-1463 -15 c0 -7 -19 -24 -42 -37 -22 -13
-61 -45 -85 -72 -36 -38 -48 -45 -58 -36 -17 16 27 67 104 119 58 40 81 47 81
26z m289 -35 c12 -41 8 -51 -12 -34 -15 12 -21 71 -7 71 5 0 14 -17 19 -37z
m89 -6 c7 -6 12 -24 10 -41 -2 -25 -7 -30 -23 -28 -29 5 -43 22 -50 60 -5 31
-4 32 22 26 16 -4 34 -11 41 -17z m2312 13 c0 -3 46 -5 103 -3 147 6 161 6
281 0 97 -5 128 -10 115 -20 -2 -2 -38 -1 -79 3 -163 13 -554 -1 -705 -26 -49
-8 -117 -18 -150 -24 -135 -21 -251 -42 -275 -50 -48 -15 -151 -33 -157 -26
-3 3 4 6 16 6 12 0 31 5 42 11 11 5 52 16 92 24 40 8 124 25 187 38 63 13 122
24 130 25 18 0 100 10 150 18 44 8 87 11 168 13 35 0 61 5 58 9 -3 5 1 9 9 9
8 0 15 -3 15 -7z m-3163 -52 c-7 -27 -13 -36 -15 -25 -5 24 6 67 17 67 5 0 4
-19 -2 -42z m493 34 c0 -15 -134 -132 -151 -132 -32 0 51 105 100 127 32 14
51 16 51 5z m3128 -24 c-4 -10 -46 -13 -184 -15 -200 -1 -326 -11 -318 -25 3
-5 27 -6 52 -2 68 9 412 13 412 4 0 -32 -98 -48 -302 -50 -21 0 -38 -5 -38
-11 0 -7 31 -9 99 -5 55 3 103 6 108 7 4 1 22 1 38 0 l30 -2 -43 -40 c-47 -45
-152 -180 -152 -196 0 -11 49 -56 90 -83 12 -8 28 -20 35 -27 7 -6 25 -20 41
-30 64 -40 113 -79 114 -88 0 -6 -18 -10 -42 -8 -23 1 -37 -2 -32 -7 5 -4 29
-10 54 -11 34 -2 53 -10 77 -33 35 -32 28 -51 -12 -36 -24 9 -230 12 -257 4
-43 -13 -11 -19 74 -14 51 3 130 1 175 -5 70 -9 86 -14 112 -39 38 -36 40 -49
6 -36 -84 32 -586 32 -535 0 6 -4 30 -4 53 1 38 7 345 4 392 -4 64 -11 131
-21 136 -19 4 0 16 -9 28 -22 21 -23 21 -24 3 -28 -11 -3 -26 -2 -33 2 -7 5
-23 4 -36 -1 -16 -6 -22 -5 -18 1 3 6 -4 11 -17 11 -13 1 -34 3 -48 5 -72 10
-383 3 -501 -11 -204 -24 -203 -23 -299 -44 -25 -6 -70 -15 -100 -22 -53 -10
-99 -22 -205 -52 -27 -8 -95 -25 -150 -37 -55 -12 -123 -28 -152 -36 -28 -8
-60 -14 -72 -14 -12 0 -47 -9 -78 -19 -53 -18 -176 -44 -263 -55 -19 -2 -58
-9 -85 -16 -157 -34 -631 -33 -725 3 -8 3 -28 8 -45 10 -16 3 -43 8 -60 11
-16 4 -43 9 -58 12 -38 8 -165 49 -202 65 -46 21 -127 71 -155 96 -30 27 -42
29 -33 6 3 -10 3 -15 -1 -11 -4 3 -9 13 -10 21 -1 9 -18 33 -38 54 -74 78 -88
96 -88 114 0 25 5 24 43 -11 45 -41 157 -112 170 -107 6 2 -23 24 -64 50 -83
52 -137 103 -144 135 l-4 22 30 -22 c16 -12 29 -25 29 -29 0 -9 90 -42 97 -35
3 3 -14 14 -38 25 -66 29 -129 92 -129 130 0 34 3 37 22 19 23 -22 57 -38 62
-30 2 4 -14 18 -35 31 -25 16 -43 37 -50 59 -14 42 -8 48 31 32 17 -7 34 -10
37 -6 4 3 -12 13 -35 22 -22 9 -44 24 -47 33 -13 34 -22 101 -13 101 4 0 26
-12 48 -26 22 -15 43 -24 46 -21 4 3 -16 20 -42 36 -66 41 -74 49 -74 71 0 10
-4 22 -10 25 -5 3 -10 15 -10 26 0 17 15 11 116 -40 69 -36 122 -57 131 -54
12 5 8 10 -18 18 -40 15 -207 100 -230 118 -8 6 -18 20 -22 29 -5 13 4 11 41
-11 57 -33 159 -81 172 -81 5 0 31 -7 57 -15 26 -8 68 -22 93 -29 25 -8 71
-18 104 -21 47 -5 57 -4 51 7 -3 7 0 6 7 -3 7 -9 34 -20 58 -24 25 -3 59 -9
75 -12 49 -9 328 -10 360 -2 17 4 53 10 80 13 106 13 214 29 260 40 11 2 81
16 155 30 123 24 229 46 255 52 6 2 46 10 90 19 44 8 98 20 120 26 22 6 51 13
65 15 46 7 85 14 110 19 14 3 41 8 60 11 19 3 49 9 65 14 17 6 64 14 105 20
41 5 86 12 100 15 14 2 47 7 73 9 26 3 51 7 55 10 11 7 76 14 182 21 52 4 96
8 98 9 1 2 109 4 238 5 191 2 235 0 232 -11z m-2910 -34 c-3 -14 -5 -12 -10 9
-3 19 -2 25 4 19 6 -6 8 -18 6 -28z m-205 20 c11 -11 -4 -32 -54 -74 -34 -29
-53 -39 -64 -33 -11 7 -3 18 38 53 29 25 54 48 55 52 4 9 16 10 25 2z m265
-27 c2 -10 1 -25 -2 -33 -10 -25 -44 4 -38 33 5 28 35 28 40 0z m90 -48 c-2
-24 -5 -26 -30 -19 -41 12 -46 17 -41 43 4 22 7 23 39 13 28 -9 34 -15 32 -37z
m-343 4 c-10 -30 -64 -68 -78 -54 -8 8 -6 15 8 25 11 8 31 23 44 35 27 24 36
22 26 -6z m175 -20 c0 -43 -7 -41 -15 5 -3 19 -1 32 5 32 5 0 10 -16 10 -37z
m-698 -35 c-6 -25 -20 -13 -17 14 4 40 6 43 14 23 4 -11 6 -28 3 -37z m728 22
c0 -16 -4 -30 -9 -30 -5 0 -8 14 -7 30 0 17 4 30 8 30 5 0 8 -13 8 -30z m40
-5 c0 -14 0 -27 0 -30 0 -3 -3 -5 -7 -5 -5 -1 -11 13 -14 30 -5 22 -3 30 7 30
8 0 14 -10 14 -25z m1515 15 c-3 -5 -18 -9 -33 -9 l-27 1 30 8 c17 4 31 8 33
9 2 0 0 -3 -3 -9z m1266 -7 c-10 -19 -28 -35 -82 -72 -25 -18 -20 -10 21 32
56 56 78 71 61 40z m-2993 -14 c-4 -27 -30 -44 -53 -35 -17 6 -16 8 5 31 29
31 53 33 48 4z m302 -9 c8 -4 16 -20 18 -35 3 -22 0 -27 -13 -21 -9 3 -28 9
-41 12 -14 4 -27 16 -30 30 -9 34 2 46 29 32 12 -6 29 -14 37 -18z m-474 1 c5
-5 52 -23 104 -40 52 -18 101 -34 109 -37 8 -2 12 -7 9 -9 -11 -12 -248 74
-248 90 0 8 15 6 26 -4z m1791 -2 c-14 -8 -22 -8 -30 0 -8 8 -3 11 19 11 25
-1 27 -2 11 -11z m-1587 -23 c0 -15 -24 -29 -33 -19 -7 6 14 32 26 33 4 0 7
-6 7 -14z m1467 -2 c-3 -3 -12 -4 -19 -1 -8 3 -5 6 6 6 11 1 17 -2 13 -5z
m-2050 -26 c-3 -8 -6 -5 -6 6 -1 11 2 17 5 13 3 -3 4 -12 1 -19z m618 2 c-3
-5 -13 -10 -21 -10 -8 0 -12 5 -9 10 3 6 13 10 21 10 8 0 12 -4 9 -10z m152
-2 c4 -7 9 -21 10 -32 2 -13 -1 -17 -13 -12 -8 3 -18 6 -20 6 -2 0 -4 11 -4
25 0 27 14 33 27 13z m-67 -20 c0 -18 -2 -20 -9 -8 -6 8 -7 18 -5 22 9 14 14
9 14 -14z m1177 16 c-3 -3 -12 -4 -19 -1 -8 3 -5 6 6 6 11 1 17 -2 13 -5z
m-1010 -24 c2 0 3 -8 3 -18 0 -15 -6 -18 -32 -14 -35 5 -49 18 -41 38 3 9 13
10 36 3 18 -5 33 -9 34 -9z m-230 -26 c-3 -3 -12 -4 -19 -1 -8 3 -5 6 6 6 11
1 17 -2 13 -5z m97 -13 c11 -4 15 -10 10 -13 -5 -3 -22 1 -39 8 -22 10 -25 13
-10 13 11 0 29 -4 39 -8z m800 -1 c-23 -9 -126 -23 -108 -15 12 6 93 23 114
23 8 1 5 -3 -6 -8z m-623 -27 c32 -3 57 -9 54 -13 -6 -9 -131 12 -142 24 -5 5
0 6 11 2 11 -4 45 -9 77 -13z m494 7 c3 -5 -4 -11 -17 -11 -13 -1 -33 -3 -46
-4 -30 -3 -15 12 18 18 14 2 28 5 32 6 4 0 10 -3 13 -9z m-1601 -26 c3 -8 2
-12 -4 -9 -6 3 -10 10 -10 16 0 14 7 11 14 -7z m1456 7 c0 -4 -63 -9 -140 -9
-77 -1 -140 2 -140 6 0 4 63 8 140 10 77 1 140 -2 140 -7z m43 2 c-7 -2 -19
-2 -25 0 -7 3 -2 5 12 5 14 0 19 -2 13 -5z m-1455 -98 c-3 -3 -9 2 -12 12 -6
14 -5 15 5 6 7 -7 10 -15 7 -18z m14 -63 c13 -26 25 -49 28 -52 3 -3 11 -16
19 -30 14 -25 14 -25 -7 -6 -12 10 -25 28 -28 40 -4 11 -18 38 -30 58 -26 40
-30 53 -15 43 6 -3 20 -27 33 -53z m3623 13 c25 -22 23 -22 -17 5 -27 17 -48
33 -48 36 0 8 33 -13 65 -41z m56 -42 c13 -16 12 -17 -3 -4 -17 13 -22 21 -14
21 2 0 10 -8 17 -17z m-3623 -28 c-3 -3 -9 2 -12 12 -6 14 -5 15 5 6 7 -7 10
-15 7 -18z m415 -57 c2 -43 0 -75 -4 -72 -5 3 -9 39 -9 81 0 97 7 92 13 -9z
m3303 11 c19 -22 19 -22 -3 -10 -13 6 -23 16 -23 21 0 15 5 12 26 -11z m-3665
-34 c7 -13 3 -12 -10 5 -11 14 -21 30 -21 35 0 11 14 -7 31 -40z m3739 -35
c15 -28 -10 -16 -34 16 -18 26 -18 26 3 15 11 -6 25 -20 31 -31z m-303 -193
c3 -4 -16 -7 -43 -8 -27 0 -65 -2 -84 -4 -19 -2 -57 -6 -85 -9 -51 -5 -354
-53 -390 -62 -18 -5 -18 -4 -2 6 25 16 179 47 267 54 27 2 53 6 57 9 4 3 46 8
93 11 46 4 85 8 87 10 5 5 93 -1 100 -7z m143 2 c0 -4 -29 -7 -65 -7 -36 0
-65 3 -65 7 0 4 29 7 65 6 36 0 65 -3 65 -6z m167 -5 c-3 -3 -12 -4 -19 -1 -8
3 -5 6 6 6 11 1 17 -2 13 -5z m140 -20 c-3 -3 -12 -4 -19 -1 -8 3 -5 6 6 6 11
1 17 -2 13 -5z m-3562 -24 c3 -6 -1 -7 -9 -4 -18 7 -21 14 -7 14 6 0 13 -4 16
-10z m2480 -39 c-11 -10 -133 -41 -156 -40 -24 1 110 42 156 48 5 1 5 -2 0 -8z
m-2186 -68 c2 -2 0 -3 -5 -3 -5 0 -25 14 -44 31 l-35 30 40 -27 c22 -16 42
-29 44 -31z m2176 -5 c-41 -131 -124 -290 -212 -406 -49 -65 -156 -162 -222
-201 -55 -33 -70 -46 -60 -53 10 -6 7 -7 -9 -3 -13 4 -29 2 -36 -4 -58 -48
-622 -53 -739 -6 -9 4 -24 2 -32 -5 -13 -11 -15 -10 -10 1 3 10 -16 23 -60 43
-36 16 -92 49 -126 73 -33 25 -63 42 -65 40 -9 -9 81 -74 153 -112 40 -20 70
-42 67 -47 -4 -7 -9 -7 -13 0 -3 5 -26 20 -51 32 -57 29 -123 74 -155 106 -15
15 -30 22 -38 18 -6 -4 -9 -4 -5 0 9 11 -14 35 -27 28 -5 -3 -7 -2 -3 3 6 6
-38 69 -80 114 -17 18 -56 95 -44 87 5 -3 33 -40 62 -83 65 -95 59 -87 66 -81
6 6 -64 117 -91 145 -18 17 -18 18 0 22 11 2 24 -4 30 -14 5 -10 20 -31 32
-49 12 -17 29 -46 39 -64 49 -95 245 -223 374 -243 36 -5 79 -12 95 -15 31 -6
276 -6 355 0 25 2 53 4 63 5 9 0 17 5 17 11 0 6 -24 7 -62 4 -71 -7 -337 -7
-383 0 -164 24 -274 70 -361 153 -44 41 -114 131 -114 146 0 17 36 -5 63 -39
79 -97 185 -171 278 -194 157 -40 328 -62 316 -43 -4 6 -44 14 -89 18 -87 8
-100 10 -133 18 -156 38 -244 85 -324 172 -94 104 -45 99 62 -6 40 -39 131
-87 222 -118 67 -22 162 -33 171 -20 3 5 -12 9 -33 10 -53 1 -68 4 -151 33
-86 29 -174 81 -221 130 l-35 36 87 1 c48 1 92 3 97 4 6 1 22 3 37 4 17 1 23
5 18 10 -6 6 -39 6 -80 2 -86 -10 -192 -3 -198 13 -3 8 31 12 117 13 104 2
303 16 386 28 14 2 48 6 75 10 28 4 93 18 145 32 52 14 107 27 122 30 15 3 26
9 23 13 -3 5 -29 2 -58 -6 -54 -14 -230 -52 -282 -60 -78 -13 -143 -18 -386
-30 -121 -6 -169 1 -169 25 0 4 75 9 168 10 92 1 183 4 202 6 138 16 209 25
235 30 66 13 272 56 295 62 47 12 55 13 88 18 18 3 42 10 52 15 25 14 27 13
35 -12 l8 -23 4 22 c3 14 14 24 34 28 39 9 47 0 24 -25 -10 -11 -15 -23 -11
-28 4 -4 17 4 27 18 43 55 50 60 69 60 18 0 18 -3 -10 -48 -16 -27 -39 -57
-50 -67 -11 -10 -20 -25 -20 -34 1 -18 90 76 90 95 0 11 69 28 78 19 8 -8 -51
-86 -110 -147 -32 -33 -58 -64 -58 -70 0 -31 161 143 185 200 6 13 25 30 44
38 l33 14 -7 -27 c-3 -15 -20 -42 -36 -60 -16 -19 -29 -39 -29 -45 0 -6 -11
-21 -25 -34 -14 -13 -25 -27 -25 -32 0 -6 -37 -44 -82 -86 -45 -42 -76 -76
-67 -76 15 0 99 76 157 142 48 56 132 183 132 200 0 15 28 28 63 28 13 0 15
-4 8 -17 -5 -10 -24 -48 -43 -84 -18 -36 -45 -83 -59 -105 -31 -47 -201 -222
-244 -252 -17 -11 -26 -24 -21 -29 5 -4 11 -2 13 5 3 6 10 12 16 12 10 0 73
49 99 77 37 39 94 104 116 132 15 19 37 46 48 60 12 14 36 58 53 96 18 39 40
81 49 95 9 14 17 27 18 30 5 27 18 68 26 83 17 33 26 16 13 -25z m36 9 c-5
-18 -15 -48 -23 -67 -17 -37 -31 -72 -32 -80 -1 -3 -9 -16 -19 -30 -18 -26
-23 -21 -8 8 5 9 17 35 25 57 9 22 23 53 31 68 8 16 15 37 15 46 0 15 8 31 16
31 1 0 -1 -15 -5 -33z m-2346 5 c-3 -3 -11 0 -18 7 -9 10 -8 11 6 5 10 -3 15
-9 12 -12z m2275 8 c0 -14 -47 -43 -62 -38 -8 3 -4 12 10 26 23 23 52 30 52
12z m-2305 -10 c3 -6 -1 -7 -9 -4 -18 7 -21 14 -7 14 6 0 13 -4 16 -10z m2094
-5 c-3 -2 -23 -7 -45 -11 -44 -7 -44 2 0 10 16 3 31 8 34 11 3 3 8 3 10 0 3
-3 3 -7 1 -10z m121 -9 c0 -17 -57 -39 -65 -26 -5 7 29 28 63 39 1 1 2 -5 2
-13z m-215 -6 c-3 -5 -12 -10 -18 -10 -7 0 -6 4 3 10 19 12 23 12 15 0z
m-1910 -10 c3 -6 -1 -7 -9 -4 -18 7 -21 14 -7 14 6 0 13 -4 16 -10z m119 1 c4
-5 -3 -7 -14 -4 -23 6 -26 13 -6 13 8 0 17 -4 20 -9z m1911 -20 c-3 -6 -18
-11 -33 -11 -29 0 -20 15 13 22 24 5 29 3 20 -11z m-215 1 c0 -5 -7 -9 -15 -9
-8 0 -15 4 -15 9 0 4 7 8 15 8 8 0 15 -4 15 -8z m110 4 c0 -2 -9 -6 -20 -9
-11 -3 -18 -1 -14 4 5 9 34 13 34 5z m264 -11 c-4 -8 -11 -15 -18 -16 -6 0
-19 -2 -28 -4 -10 -2 -18 3 -18 10 0 12 17 19 57 24 7 0 10 -5 7 -14z m-1989
-15 c3 -5 -4 -6 -15 -3 -11 3 -22 9 -25 13 -3 5 4 6 15 3 11 -3 22 -9 25 -13z
m1551 5 c-11 -8 -31 -15 -45 -15 -14 0 -37 -3 -50 -7 -14 -3 -22 -2 -18 3 3 5
18 11 34 12 15 1 42 6 58 11 41 13 43 12 21 -4z m189 -4 c-6 -4 -23 -11 -40
-15 -28 -6 -29 -5 -11 9 21 16 67 22 51 6z m165 4 c0 -5 -55 -35 -65 -35 -3 0
-1 9 5 20 9 17 60 30 60 15z m-1792 -41 c110 -29 220 -51 302 -60 78 -9 79 -9
86 -16 10 -10 -101 2 -226 24 -116 21 -234 58 -254 79 -8 8 -4 8 12 -1 13 -6
49 -18 80 -26z m1499 30 c-3 -3 -12 -4 -19 -1 -8 3 -5 6 6 6 11 1 17 -2 13 -5z
m631 -14 c22 -7 23 -8 6 -9 -11 -1 -29 6 -40 15 -10 8 -13 12 -6 9 8 -4 26
-11 40 -15z m-820 -5 c-2 -3 -20 -7 -39 -10 l-34 -5 35 14 c32 12 50 13 38 1z
m227 5 c-3 -5 -16 -10 -28 -10 -18 0 -19 2 -7 10 20 13 43 13 35 0z m165 0 c0
-5 -12 -12 -27 -15 -16 -4 -37 -11 -48 -17 -19 -10 -19 -10 -5 8 8 10 20 22
25 26 15 11 55 10 55 -2z m420 -24 c149 -49 272 -109 334 -165 61 -56 79 -147
40 -207 -14 -21 -116 -104 -129 -104 -3 0 -24 -9 -48 -19 -23 -10 -73 -29
-112 -41 -38 -13 -79 -26 -90 -31 -41 -18 -213 -57 -300 -69 -49 -6 -119 -16
-155 -22 -68 -10 -83 -12 -220 -26 -197 -21 -674 -19 -870 3 -25 3 -67 7 -95
10 -27 3 -70 8 -95 11 -25 3 -65 7 -90 9 -25 2 -45 4 -45 5 0 1 -11 3 -25 5
-37 4 -114 21 -205 45 -44 12 -98 26 -120 31 -22 5 -49 13 -60 18 -11 5 -51
19 -90 31 -90 28 -231 113 -256 154 -28 46 -27 150 2 174 11 9 32 28 47 41 56
51 180 118 229 124 33 3 28 -17 -6 -24 -53 -11 -137 -58 -190 -106 -46 -42
-51 -50 -51 -89 0 -78 34 -125 119 -166 25 -13 48 -25 51 -29 23 -25 176 -75
293 -94 54 -9 104 -18 110 -20 18 -6 67 -16 107 -20 19 -2 55 -7 80 -11 25 -3
59 -8 75 -9 17 -2 55 -7 85 -11 30 -4 71 -8 90 -10 19 -1 35 -3 35 -4 0 -12
728 -18 830 -7 33 4 74 8 90 11 17 2 62 7 100 11 144 13 246 25 292 35 27 6
62 12 78 14 48 7 198 46 217 56 10 6 23 10 29 10 6 0 49 18 94 40 146 70 201
151 154 226 -20 33 -127 118 -184 147 -35 17 -205 73 -252 82 -35 7 -46 25
-15 25 9 0 64 -15 122 -34z m-2400 -13 c-25 -8 -51 -20 -58 -25 -7 -6 -15 -8
-18 -5 -9 9 68 46 96 46 18 0 13 -4 -20 -16z m1503 10 c-7 -2 -19 -2 -25 0 -7
3 -2 5 12 5 14 0 19 -2 13 -5z m1077 -39 c19 -19 0 -17 -24 1 -11 8 -27 15
-36 15 -9 0 -25 7 -36 15 -16 12 -11 12 31 -1 28 -9 57 -23 65 -30z m-1130 26
c0 -5 -3 -9 -7 -8 -7 2 -67 -7 -121 -18 -21 -4 -143 -23 -179 -28 -18 -2 -33
0 -33 5 0 5 12 10 28 10 49 2 84 8 115 19 16 5 51 10 76 10 25 0 53 5 61 10
20 13 60 13 60 0z m95 0 c-3 -5 -14 -10 -23 -10 -15 0 -15 2 -2 10 20 13 33
13 25 0z m725 0 c0 -5 -7 -10 -16 -10 -8 0 -12 5 -9 10 3 6 10 10 16 10 5 0 9
-4 9 -10z m-2139 -17 c13 -17 13 -17 -6 -3 -11 8 -22 16 -24 17 -2 2 0 3 6 3
6 0 17 -8 24 -17z m1472 10 c-7 -2 -19 -2 -25 0 -7 3 -2 5 12 5 14 0 19 -2 13
-5z m751 -2 c3 -5 0 -14 -8 -20 -16 -14 -71 3 -61 19 8 12 62 13 69 1z m-825
-16 c-3 -2 -23 -7 -45 -11 -34 -5 -181 -37 -224 -48 -8 -2 -46 -7 -85 -11 -38
-4 -79 -10 -90 -13 -11 -2 -122 -7 -247 -9 -217 -5 -227 -4 -237 15 -10 19 -5
19 232 16 215 -2 312 2 412 20 67 12 162 28 195 33 19 3 37 7 39 9 6 6 55 5
50 -1z m924 -17 c15 -6 26 -16 24 -22 -6 -19 -37 -19 -78 0 -31 14 -37 20 -28
31 12 13 28 12 82 -9z m-2543 7 c0 -2 -26 -21 -57 -41 -32 -20 -69 -46 -82
-58 -24 -21 -24 -21 -13 0 6 11 42 40 79 62 71 44 73 45 73 37z m245 -44 c26
-27 58 -65 72 -84 32 -45 102 -79 167 -82 52 -2 65 -12 112 -89 l22 -34 -24 4
c-13 2 -35 9 -49 14 -15 6 -36 10 -48 9 -33 -1 51 -36 107 -44 25 -4 46 -11
46 -16 0 -11 11 -13 -121 16 -107 24 -208 53 -219 65 -3 3 -15 11 -28 18 -22
12 -22 11 -13 -7 13 -24 118 -64 229 -87 45 -10 82 -22 82 -27 0 -5 -14 -7
-32 -3 -18 4 -53 11 -78 16 -68 12 -149 36 -203 59 -26 11 -51 20 -55 20 -4 0
-28 19 -54 41 -27 23 -48 35 -48 28 0 -17 46 -55 102 -84 27 -13 50 -24 53
-25 2 0 19 -6 37 -13 18 -8 53 -17 77 -21 62 -10 96 -27 97 -48 1 -13 -3 -16
-16 -12 -10 3 -27 8 -37 10 -57 11 -251 70 -268 81 -11 6 -37 21 -57 32 -36
19 -108 94 -108 114 0 5 -4 6 -10 3 -5 -3 -10 -11 -10 -17 0 -13 117 -128 131
-128 5 0 28 -9 50 -19 22 -11 54 -23 72 -27 17 -3 38 -10 47 -15 15 -8 48 -17
168 -46 42 -10 62 -20 62 -30 0 -10 -6 -13 -17 -9 -9 4 -38 9 -63 12 -25 3
-56 10 -70 15 -14 4 -36 11 -50 14 -42 8 -134 34 -155 44 -11 5 -40 17 -65 27
-25 10 -47 21 -50 25 -3 4 -23 16 -44 27 -52 28 -76 66 -76 121 0 39 5 49 38
79 54 50 185 115 244 121 3 1 27 -21 53 -48z m2084 17 c-8 -14 -14 -18 -17
-10 -4 13 17 46 25 38 3 -2 -1 -15 -8 -28z m-1846 2 c9 -11 13 -20 7 -20 -5 0
-14 9 -20 20 -6 11 -9 20 -8 20 2 0 11 -9 21 -20z m707 9 c0 -5 -21 -9 -47
-10 -27 -1 -60 -2 -75 -3 -16 -2 -28 1 -28 5 0 4 26 9 57 11 31 2 65 4 75 5
10 1 18 -2 18 -8z m1223 -9 c15 -13 -21 -38 -47 -33 -29 6 -30 7 -15 34 10 20
41 19 62 -1z m-1879 -9 c16 -17 16 -19 -4 -24 -17 -4 -20 -10 -14 -34 l6 -28
-17 23 c-16 22 -16 24 1 37 15 11 16 15 5 29 -19 23 2 20 23 -3z m322 12 c-7
-7 -77 -5 -85 2 -2 3 17 5 44 5 27 0 45 -3 41 -7z m74 -1 c0 -9 -45 -10 -54
-2 -3 3 8 7 24 8 17 1 30 -1 30 -6z m30 -2 c0 -5 -4 -10 -10 -10 -5 0 -10 5
-10 10 0 6 5 10 10 10 6 0 10 -4 10 -10z m37 4 c-3 -3 -12 -4 -19 -1 -8 3 -5
6 6 6 11 1 17 -2 13 -5z m33 -4 c0 -5 -2 -10 -4 -10 -3 0 -8 5 -11 10 -3 6 -1
10 4 10 6 0 11 -4 11 -10z m-688 -75 c42 -41 71 -75 65 -75 -10 0 -147 136
-147 146 0 9 7 2 82 -71z m254 58 c7 -10 14 -21 14 -25 0 -13 -36 4 -48 23
-10 16 -9 19 4 19 9 0 23 -8 30 -17z m1922 -31 c2 -6 -6 -15 -17 -21 -15 -9
-28 -7 -55 6 -34 16 -47 33 -26 33 6 0 10 7 10 15 0 12 7 11 42 -4 23 -9 43
-22 46 -29z m147 15 c104 -72 122 -91 142 -145 11 -30 10 -34 -24 -67 -42 -40
-64 -47 -35 -10 39 49 8 122 -68 163 -23 12 -56 30 -74 40 -17 9 -33 18 -35
19 -1 1 3 9 10 17 16 17 41 12 84 -17z m-1994 -3 c6 -18 4 -21 -11 -17 -10 3
-26 13 -35 23 -16 18 -16 19 10 17 18 -2 31 -10 36 -23z m2094 8 c-3 -3 -11 0
-18 7 -9 10 -8 11 6 5 10 -3 15 -9 12 -12z m46 -20 c-7 -2 -18 1 -23 6 -8 8
-4 9 13 5 13 -4 18 -8 10 -11z m-516 -2 c-3 -5 -12 -10 -18 -10 -7 0 -6 4 3
10 19 12 23 12 15 0z m75 -9 c-1 -21 -20 -33 -45 -27 -26 7 -26 8 -11 25 16
17 56 19 56 2z m-1800 -11 c8 -15 8 -20 -2 -20 -7 0 -19 9 -26 20 -10 17 -10
20 3 20 8 0 19 -9 25 -20z m2038 -4 c20 -12 46 -26 58 -30 31 -10 76 -62 80
-92 1 -15 -4 -37 -13 -50 -8 -13 -12 -28 -9 -33 7 -10 -31 -41 -95 -80 -45
-26 -216 -79 -284 -87 -27 -3 -57 -8 -65 -11 -8 -4 -17 -7 -20 -8 -3 -1 -32
-5 -65 -9 -93 -11 -125 -16 -189 -26 -33 -5 -61 -8 -63 -6 -2 2 16 15 41 30
52 31 76 60 76 96 1 32 48 89 60 70 6 -10 11 -8 19 8 6 12 24 29 41 38 16 10
27 21 25 25 -9 14 24 31 47 24 13 -4 32 -9 43 -11 20 -5 20 -5 0 11 -18 14
-18 16 -3 31 15 15 19 15 53 -6 20 -12 39 -20 42 -16 4 3 4 7 2 9 -61 46 -58
42 -40 66 l17 22 26 -24 c15 -14 38 -24 52 -24 14 0 42 -13 61 -27 26 -20 35
-23 35 -12 0 9 -21 26 -47 39 l-47 24 27 17 c25 17 28 17 89 -13 35 -16 76
-42 91 -57 32 -30 44 -28 22 3 -18 25 -115 83 -139 83 -19 0 -21 21 -4 38 17
17 34 15 76 -12z m-1978 -6 c13 -11 21 -23 18 -26 -3 -3 -19 6 -34 20 -16 14
-24 26 -18 26 6 0 21 -9 34 -20z m1830 -19 c0 -14 -29 -22 -56 -15 -26 7 -31
23 -13 41 9 9 19 8 40 -3 16 -8 29 -18 29 -23z m421 -13 c16 -30 3 -20 -27 20
-23 30 -24 33 -5 17 13 -11 27 -28 32 -37z m-2176 13 c10 -17 -13 -21 -29 -5
-23 22 -20 37 3 24 11 -5 22 -14 26 -19z m1525 20 c0 -4 -13 -25 -30 -46 -16
-20 -32 -45 -35 -55 -3 -10 -12 -21 -20 -24 -12 -4 -13 -2 -2 17 6 12 15 24
18 27 3 3 16 24 29 48 22 39 40 54 40 33z m26 -33 c-18 -26 -22 -17 -5 14 6
11 13 17 16 15 3 -3 -2 -16 -11 -29z m70 -5 c-3 -8 -6 -17 -6 -19 0 -2 -11 -4
-25 -4 -28 0 -30 3 -13 29 13 22 52 17 44 -6z m-2515 -26 c-10 -9 -11 -8 -5 6
3 10 9 15 12 12 3 -3 0 -11 -7 -18z m863 -3 c6 -17 1 -18 -25 -3 -11 5 -17 14
-14 19 7 12 32 2 39 -16z m54 -2 c3 -9 -2 -13 -14 -10 -9 1 -19 9 -22 16 -3 9
2 13 14 10 9 -1 19 -9 22 -16z m2185 -28 c5 -30 -8 -20 -18 15 -4 15 -3 21 3
17 5 -3 12 -17 15 -32z m-2410 14 c-6 -10 -35 -10 -51 1 -8 5 0 7 22 7 19 -1
32 -4 29 -8z m1777 1 c0 -14 -31 -39 -41 -33 -13 8 7 41 25 41 9 0 16 -4 16
-8z m-2463 -46 c1 -24 0 -25 -6 -8 -7 17 -6 35 2 35 2 0 3 -12 4 -27z m2293
-44 c-7 -11 -14 -18 -17 -15 -3 3 0 12 7 21 18 21 23 19 10 -6z m-2271 -44 c0
-5 -6 1 -14 15 -8 14 -14 30 -14 35 0 6 6 -1 14 -15 8 -14 14 -29 14 -35z
m2241 12 c0 -2 -12 -14 -27 -28 l-28 -24 24 28 c23 25 31 32 31 24z m790 -40
c0 -2 -12 -14 -27 -28 l-28 -24 24 28 c23 25 31 32 31 24z m-2226 -46 c3 -4 3
-11 0 -14 -8 -7 -44 4 -44 14 0 12 37 12 44 0z m-57 -38 c0 -9 -12 -12 -40 -9
-36 3 -61 21 -52 36 7 12 92 -13 92 -27z m1449 4 c-3 -14 -18 -32 -33 -42
l-28 -18 28 30 c15 16 27 37 27 48 0 10 3 16 6 12 4 -3 4 -17 0 -30z m-1281
-17 c4 -6 11 -8 16 -5 5 4 9 2 9 -3 0 -5 11 -15 25 -22 14 -7 23 -15 22 -17
-6 -6 -117 58 -117 68 0 11 35 -6 45 -21z m-99 5 c18 -15 18 -15 -10 -13 -16
2 -31 9 -34 16 -5 17 20 15 44 -3z m1330 -10 c-15 -14 -32 -25 -39 -25 -13 0
43 49 57 50 5 0 -3 -11 -18 -25z m-1270 -13 c-4 -3 -14 2 -24 12 -16 18 -16
18 6 6 13 -6 21 -14 18 -18z m-141 -4 c25 -7 45 -16 45 -21 0 -14 -63 -3 -90
16 -29 20 -17 21 45 5z m1310 -4 c-26 -20 -55 -36 -55 -30 0 5 63 46 70 46 3
-1 -4 -8 -15 -16z m795 1 c0 -21 -266 -111 -360 -120 -52 -6 -16 11 55 25 54
11 124 31 165 47 8 3 42 16 75 29 33 12 61 22 63 23 1 1 2 -1 2 -4z m-1949
-28 c14 -10 29 -14 34 -10 4 5 5 3 2 -3 -7 -13 -102 9 -122 28 -17 16 59 3 86
-15z m1213 -6 c-11 -10 -64 -24 -64 -16 0 7 64 33 69 28 3 -2 0 -7 -5 -12z
m-1769 -11 c3 -5 1 -10 -4 -10 -6 0 -11 5 -11 10 0 6 2 10 4 10 3 0 8 -4 11
-10z m116 -37 c30 -9 58 -20 63 -25 5 -4 -4 -4 -20 1 -81 26 -118 39 -108 40
7 1 36 -7 65 -16z m-36 -13 c3 -5 15 -10 26 -10 10 0 19 -4 19 -10 0 -5 -2
-10 -4 -10 -9 0 -76 31 -76 35 0 9 29 5 35 -5z m106 -34 c19 -3 70 -14 114
-25 44 -11 98 -22 120 -25 22 -2 67 -9 100 -15 33 -5 94 -12 135 -15 41 -3
113 -9 160 -13 236 -19 904 -2 1045 27 28 6 61 10 75 9 29 -2 75 6 145 26 28
8 64 16 82 19 17 2 37 7 42 11 6 3 11 2 11 -3 0 -10 -93 -46 -150 -57 -19 -4
-48 -13 -65 -20 -77 -33 -340 -90 -460 -100 -38 -4 -76 -8 -82 -10 -37 -12
-277 -16 -398 -7 -77 6 -180 14 -229 17 -82 6 -120 13 -276 50 -134 32 -420
126 -420 138 0 5 4 6 9 3 4 -3 23 -8 42 -10z m109 -2 c0 -2 -7 -4 -15 -4 -8 0
-15 4 -15 10 0 5 7 7 15 4 8 -4 15 -8 15 -10z m1760 -2 c0 -5 -7 -9 -15 -9 -8
0 -12 4 -9 9 3 4 9 8 15 8 5 0 9 -4 9 -8z m43 1 c-7 -2 -19 -2 -25 0 -7 3 -2
5 12 5 14 0 19 -2 13 -5z m-1976 -9 c-3 -3 -12 -4 -19 -1 -8 3 -5 6 6 6 11 1
17 -2 13 -5z m241 -1 c-10 -2 -28 -2 -40 0 -13 2 -5 4 17 4 22 1 32 -1 23 -4z
m1647 -3 c-2 -4 -20 -7 -40 -8 -20 -1 -39 -3 -43 -6 -14 -8 -127 -18 -119 -10
17 17 212 41 202 24z m255 0 c-8 -5 -19 -10 -25 -10 -5 0 -3 5 5 10 8 5 20 10
25 10 6 0 3 -5 -5 -10z m-1952 -65 c8 -9 -22 -1 -101 27 -32 12 -59 24 -62 27
-5 9 154 -44 163 -54z m102 61 c0 -11 -19 -15 -25 -6 -3 5 1 10 9 10 9 0 16
-2 16 -4z m47 -12 c-3 -3 -12 -4 -19 -1 -8 3 -5 6 6 6 11 1 17 -2 13 -5z m140
0 c-3 -3 -12 -4 -19 -1 -8 3 -5 6 6 6 11 1 17 -2 13 -5z m-67 -13 c0 -4 -11
-6 -25 -3 -14 2 -25 6 -25 8 0 2 11 4 25 4 14 0 25 -4 25 -9z m1248 -2 c-15
-8 -216 -24 -208 -16 3 3 39 8 80 11 41 4 75 8 77 10 2 1 17 3 34 3 19 0 25
-3 17 -8z m-1194 -10 c-4 -7 -44 0 -44 7 0 2 11 3 24 2 14 -1 23 -5 20 -9z
m1568 -4 c-41 -18 -182 -63 -234 -74 -59 -14 -32 5 32 22 30 8 75 22 100 30
85 29 105 35 120 36 8 0 0 -6 -18 -14z m-1187 -15 c4 -6 -9 -10 -32 -9 -38 1
-38 1 -8 9 17 4 31 8 32 9 1 0 5 -3 8 -9z m428 3 c-7 -2 -21 -2 -30 0 -10 3
-4 5 12 5 17 0 24 -2 18 -5z m-980 -38 c32 -9 57 -19 54 -21 -5 -5 -116 24
-136 37 -19 12 -12 10 82 -16z m87 -19 c0 -3 -4 -8 -10 -11 -5 -3 -10 -1 -10
4 0 6 5 11 10 11 6 0 10 -2 10 -4z m1368 -12 c-8 -8 -109 -34 -132 -34 -27 0
-14 10 19 16 16 3 44 9 64 13 46 11 56 12 49 5z m-1278 -15 c21 -7 18 -8 -13
-5 -21 2 -41 7 -44 10 -9 9 27 6 57 -5z m117 -25 c-3 -3 -12 -4 -19 -1 -8 3
-5 6 6 6 11 1 17 -2 13 -5z m963 2 c0 -2 -7 -6 -15 -10 -8 -3 -15 -1 -15 4 0
6 7 10 15 10 8 0 15 -2 15 -4z m-785 -21 c33 -3 96 -7 140 -10 44 -4 82 -9 85
-12 9 -10 -243 8 -310 22 -48 10 -53 13 -20 10 25 -3 72 -7 105 -10z m675 5
c0 -5 -5 -10 -11 -10 -5 0 -7 5 -4 10 3 6 8 10 11 10 2 0 4 -4 4 -10z m-155
-20 c4 -6 -6 -10 -22 -9 -25 0 -26 1 -8 9 11 5 21 9 22 9 1 1 5 -3 8 -9z m68
3 c-7 -2 -19 -2 -25 0 -7 3 -2 5 12 5 14 0 19 -2 13 -5z m-328 -13 c3 -6 -1
-7 -9 -4 -18 7 -21 14 -7 14 6 0 13 -4 16 -10z m55 -2 c0 -3 -9 -6 -20 -5 -11
1 -20 5 -20 9 0 3 9 6 20 5 11 -1 20 -5 20 -9z m147 6 c-3 -3 -12 -4 -19 -1
-8 3 -5 6 6 6 11 1 17 -2 13 -5z"/>
<path d="M2737 3656 c-20 -30 -96 -45 -210 -40 -45 2 -119 6 -164 8 -46 2 -83
0 -83 -5 0 -5 -6 -9 -13 -9 -37 0 -99 -103 -80 -134 4 -6 8 -19 8 -28 1 -10 5
-21 9 -25 12 -13 76 -5 102 12 35 23 23 30 -16 10 -33 -17 -60 -8 -60 20 0 8
-6 16 -12 18 -10 4 -10 6 0 6 6 1 12 8 12 16 0 8 10 23 22 35 12 11 18 20 13
20 -4 0 0 9 10 20 19 21 35 26 35 11 0 -5 -10 -12 -22 -16 -15 -4 -18 -8 -10
-12 7 -3 19 0 26 6 15 13 146 18 165 7 7 -4 10 -15 7 -23 -3 -8 -2 -12 2 -9 4
2 14 1 22 -5 12 -7 10 -9 -7 -9 -17 0 -24 -7 -28 -27 -9 -44 -29 -78 -49 -81
-23 -5 -56 -33 -56 -48 0 -7 -6 -14 -12 -17 -7 -2 -10 -8 -6 -12 4 -4 28 2 53
14 24 11 47 21 49 21 12 0 -37 -117 -54 -130 -56 -43 -64 -52 -51 -60 8 -4 21
-6 30 -2 13 4 12 1 -3 -16 -11 -12 -26 -22 -34 -22 -13 0 -12 3 3 14 18 13 18
14 -4 21 -13 4 -28 2 -34 -4 -6 -6 -21 -11 -34 -11 -16 0 -21 -4 -16 -16 5
-13 2 -15 -15 -9 -13 3 -22 2 -22 -4 0 -15 30 -21 89 -16 47 4 59 10 88 42 36
40 68 93 56 93 -4 0 -2 5 5 12 7 7 12 22 12 34 0 13 5 26 10 29 12 7 14 51 3
58 -5 2 -2 2 5 1 6 -2 12 1 12 6 0 5 11 12 25 16 23 6 36 24 18 24 -5 0 -14 4
-22 9 -12 8 -12 12 -2 25 11 13 11 16 0 16 -11 0 -11 2 1 10 8 5 16 13 16 17
8 43 17 49 86 61 80 14 133 42 141 74 9 31 2 33 -16 4z m-257 -216 c0 -5 -5
-10 -11 -10 -5 0 -7 5 -4 10 3 6 8 10 11 10 2 0 4 -4 4 -10z"/>
<path d="M3132 3648 c-7 -7 -12 -17 -12 -24 0 -17 -29 -27 -70 -25 -46 3 -100
-17 -81 -29 8 -4 20 -6 27 -3 20 8 94 -16 89 -30 -14 -47 -14 -77 1 -77 8 0
12 -5 9 -10 -4 -6 -11 -8 -16 -5 -5 4 -9 -3 -9 -15 0 -12 5 -18 10 -15 15 9
12 -4 -5 -22 -19 -19 -9 -36 17 -27 19 6 20 5 1 -14 -10 -11 -24 -28 -31 -36
-15 -19 -53 -21 -70 -4 -8 8 -8 15 -1 24 6 7 7 18 3 25 -4 7 -8 31 -9 53 -1
23 -5 47 -9 54 -4 7 -2 12 3 12 6 0 11 5 11 10 0 37 -66 -20 -94 -80 -9 -19
-26 -40 -38 -45 -23 -11 -36 -69 -18 -80 18 -11 11 -25 -13 -25 -32 0 -49 18
-36 42 7 12 6 18 -1 18 -7 0 -8 5 -3 13 4 6 8 15 9 20 1 4 2 8 4 10 2 3 7 23
16 59 7 32 -14 58 -42 54 -11 -2 -13 -1 -6 1 15 5 16 19 2 28 -5 3 -10 2 -10
-4 0 -5 -9 -13 -20 -16 -14 -4 -20 -15 -19 -33 3 -77 -50 -192 -88 -192 -13 0
-18 31 -6 43 4 4 8 31 9 60 2 49 1 52 -22 52 -26 0 -32 -10 -11 -18 7 -3 5 -6
-5 -6 -10 -1 -18 -7 -18 -15 0 -8 8 -17 18 -19 16 -4 16 -5 0 -6 -12 -1 -18
-9 -18 -27 0 -24 2 -25 18 -13 9 7 6 1 -8 -15 -16 -19 -21 -30 -13 -33 7 -2
10 -10 7 -18 -3 -7 4 -18 15 -25 33 -17 69 14 102 88 16 35 27 67 24 71 -2 4
3 18 12 30 22 32 32 11 26 -54 -6 -70 16 -115 55 -113 15 1 32 5 37 9 6 4 29
7 52 7 23 1 51 6 62 11 11 6 28 11 38 11 10 0 31 7 46 15 27 14 30 13 46 -7
19 -23 49 -30 94 -22 42 8 32 25 -12 18 -33 -5 -39 -3 -44 15 -4 15 -10 19
-24 15 -14 -5 -15 -4 -3 4 8 6 18 8 24 5 5 -4 7 1 3 10 -4 10 -2 28 3 42 5 14
6 25 1 25 -13 0 -30 47 -24 69 4 15 1 21 -11 21 -10 0 -14 5 -11 10 4 6 10 8
15 5 5 -3 12 4 15 16 l7 21 15 -22 c10 -14 18 -18 22 -11 5 7 19 6 46 -3 51
-18 153 -11 134 9 -3 2 -21 5 -40 7 -18 1 -54 10 -78 20 -36 15 -46 16 -60 6
-14 -11 -14 -11 -3 4 8 10 10 27 7 45 -16 69 -20 74 -43 51z m28 -53 c0 -8 -6
-15 -14 -15 -20 0 -29 17 -14 23 22 9 28 7 28 -8z m-211 -165 c-16 -10 -3 -43
13 -35 7 4 5 0 -6 -9 -10 -8 -15 -19 -11 -25 3 -6 0 -11 -7 -11 -7 0 -19 9
-25 20 -10 15 -9 25 4 48 10 18 23 28 31 25 10 -5 11 -8 1 -13z m-29 -125 c0
-8 -7 -11 -20 -8 -16 4 -18 8 -9 19 13 16 29 10 29 -11z"/>
<path d="M2608 3499 c-14 -8 -15 -14 -6 -34 11 -25 40 -35 34 -12 -1 6 -1 9 1
5 10 -18 33 -6 33 16 0 32 -29 45 -62 25z"/>
<path d="M3149 3480 c-3 -20 -4 -25 -12 -37 -10 -15 0 -36 13 -28 5 3 8 13 8
23 0 9 3 25 7 35 4 10 3 17 -4 17 -6 0 -12 -4 -12 -10z"/>
<path d="M1915 3365 c-8 -14 -22 -37 -31 -51 -8 -14 -13 -31 -11 -39 4 -9 -1
-11 -14 -8 -23 6 -86 -24 -94 -46 -7 -19 2 -26 17 -14 7 5 28 10 47 11 33 2
33 2 27 -30 -4 -18 -9 -43 -12 -55 -2 -12 0 -24 5 -28 13 -8 -38 -105 -56
-105 -18 0 -27 25 -17 48 4 9 9 22 10 27 1 6 3 12 4 15 1 3 3 18 4 33 2 37
-17 53 -35 30 -12 -15 -12 -16 1 -8 8 4 6 -1 -6 -12 -16 -16 -21 -35 -23 -79
-1 -32 -7 -64 -13 -71 -13 -17 -34 -17 -41 0 -7 19 -2 90 7 106 7 10 5 12 -5
6 -11 -6 -12 -5 -1 6 18 20 15 31 -10 27 -13 -2 -23 -7 -23 -13 0 -5 -4 -16
-9 -24 -6 -10 -5 -16 3 -19 7 -2 9 -8 3 -15 -6 -7 -13 -26 -16 -43 -5 -24 -3
-33 8 -37 9 -4 16 -12 15 -19 0 -10 -2 -10 -6 0 -2 6 -9 12 -14 12 -6 0 -5 -8
1 -20 6 -11 15 -18 21 -15 5 4 9 2 9 -3 0 -14 35 -3 58 18 11 11 28 16 43 13
18 -3 32 4 52 26 15 17 27 39 28 48 1 16 10 5 11 -14 1 -19 36 -32 64 -24 20
5 36 22 56 57 31 55 35 72 13 54 -8 -7 -15 -18 -15 -25 0 -8 -13 -19 -30 -27
-16 -7 -30 -17 -30 -23 -1 -5 -7 1 -14 15 -13 25 -15 70 -3 100 3 8 8 27 11
42 5 22 13 28 44 33 72 11 112 26 122 45 14 27 12 33 -7 25 -19 -7 -30 -9
-102 -21 -42 -7 -43 -6 -32 15 9 17 9 21 -2 21 -7 0 -19 -6 -27 -12 -12 -11
-12 -10 -1 5 7 9 20 17 27 17 8 0 14 3 15 8 0 4 2 17 3 30 4 33 -11 37 -29 7z
m121 -97 c4 -6 3 -8 -4 -4 -6 3 -13 2 -17 -4 -3 -5 -16 -10 -28 -10 -21 1 -12
7 40 29 1 1 5 -4 9 -11z m-81 -18 c-3 -5 -12 -10 -18 -10 -7 0 -6 4 3 10 19
12 23 12 15 0z"/>
<path d="M3285 3290 c-4 -13 0 -26 11 -37 11 -11 13 -18 5 -21 -15 -5 -14 -22
2 -22 23 0 47 34 42 60 -8 41 -49 55 -60 20z"/>
<path d="M1225 3292 c-34 -5 -102 -43 -129 -71 -24 -26 -31 -49 -28 -103 4
-65 99 -111 141 -69 12 12 21 31 20 44 -1 20 -2 20 -12 -5 -6 -15 -17 -30 -24
-32 -19 -8 -52 15 -55 38 -4 29 -27 31 -37 4 -7 -17 -10 -18 -10 -6 -1 10 11
25 25 34 16 11 24 24 21 35 -6 24 38 65 93 84 58 21 136 28 158 16 9 -6 12
-11 6 -11 -5 0 -21 -14 -33 -31 -13 -18 -17 -29 -10 -25 8 4 6 1 -4 -7 -10 -9
-20 -21 -21 -29 -2 -7 -6 -20 -9 -28 -5 -15 -19 -66 -23 -85 -1 -5 -3 -14 -4
-20 -6 -21 -8 -31 -9 -50 -1 -11 -8 -28 -16 -38 -13 -18 -15 -18 -72 2 -68 24
-101 26 -125 7 -21 -15 -23 -52 -5 -70 6 -7 33 -18 60 -25 38 -11 55 -11 92
-1 25 7 45 17 45 21 0 5 15 9 33 9 26 1 29 2 14 11 -16 9 -15 13 9 57 24 42
32 68 36 110 1 6 5 12 10 12 4 0 8 5 8 11 0 5 -4 8 -8 5 -5 -3 2 17 15 44 13
27 28 52 33 55 6 3 10 14 10 24 0 30 26 46 55 33 43 -20 28 -79 -30 -122 -19
-14 -35 -28 -35 -32 0 -3 13 -11 29 -16 16 -6 38 -23 48 -39 9 -15 22 -31 28
-35 6 -5 5 -8 -2 -8 -19 0 -16 -31 5 -46 15 -12 15 -12 -5 -7 -13 3 -23 1 -23
-5 0 -6 -16 -20 -36 -32 -27 -17 -45 -21 -80 -17 -57 6 -57 -10 0 -18 58 -9
131 -2 151 15 17 14 40 62 49 102 5 21 -1 33 -28 62 l-34 35 34 37 c19 20 33
39 30 42 -3 3 -1 11 6 19 8 10 8 17 0 25 -6 6 -8 17 -5 24 3 8 -1 14 -10 14
-8 0 -17 6 -20 14 -3 8 -14 15 -24 15 -22 0 -68 8 -68 11 0 1 -31 4 -70 6 -38
2 -86 5 -105 6 -20 2 -45 2 -55 0z m320 -72 c3 -5 1 -10 -4 -10 -6 0 -11 5
-11 10 0 6 2 10 4 10 3 0 8 -4 11 -10z m-20 -54 c0 -14 -5 -22 -12 -19 -9 4
-10 10 -2 24 13 24 14 24 14 -5z m-430 -16 c3 -5 1 -10 -4 -10 -6 0 -11 5 -11
10 0 6 2 10 4 10 3 0 8 -4 11 -10z m425 -24 c0 -2 -7 -7 -16 -10 -8 -3 -12 -2
-9 4 6 10 25 14 25 6z m-180 -42 c0 -8 -5 -12 -10 -9 -6 4 -8 11 -5 16 9 14
15 11 15 -7z m-18 -46 c-7 -7 -12 -8 -12 -2 0 14 12 26 19 19 2 -3 -1 -11 -7
-17z m208 -18 c0 -5 -2 -10 -4 -10 -3 0 -8 5 -11 10 -3 6 -1 10 4 10 6 0 11
-4 11 -10z m-420 -104 c0 -9 -40 -13 -46 -5 -3 5 6 9 20 9 14 0 26 -2 26 -4z
m103 -2 l37 -7 -32 -23 c-39 -30 -41 -30 -73 0 -23 22 -24 25 -8 29 28 7 35 7
76 1z"/>
<path d="M2176 3284 c-18 -18 -20 -24 -6 -24 5 0 14 9 20 20 13 24 7 26 -14 4z"/>
<path d="M2160 3240 c0 -5 5 -10 10 -10 6 0 10 5 10 10 0 6 -4 10 -10 10 -5 0
-10 -4 -10 -10z"/>
<path d="M2160 3208 c1 -25 35 -59 53 -52 21 8 22 24 2 24 -8 0 -20 9 -27 20
-14 23 -28 26 -28 8z"/>
<path d="M3449 3166 c7 -9 20 -16 27 -16 17 0 88 -44 118 -72 27 -25 56 -41
56 -31 0 21 -134 111 -190 128 -22 7 -23 6 -11 -9z"/>
<path d="M650 2935 c0 -9 149 -65 170 -65 13 1 -36 30 -49 30 -9 0 -28 6 -42
14 -29 15 -79 29 -79 21z"/>
<path d="M3489 2983 c-1 -16 -7 -38 -14 -55 -4 -10 -3 -18 3 -18 5 0 12 10 15
23 2 12 8 30 12 40 4 10 3 17 -4 17 -6 0 -11 -3 -12 -7z"/>
<path d="M3594 2913 c-3 -10 -10 -28 -15 -40 -5 -14 -5 -23 1 -23 8 0 40 61
40 76 0 12 -22 1 -26 -13z"/>
<path d="M3463 2893 c-7 -3 -13 -12 -13 -21 0 -15 2 -15 17 1 18 18 16 27 -4
20z"/>
<path d="M3436 2835 c-3 -8 -1 -15 3 -15 5 0 11 7 15 15 3 8 1 15 -3 15 -5 0
-11 -7 -15 -15z"/>
<path d="M2287 2490 c3 -11 9 -17 14 -14 14 8 10 34 -5 34 -9 0 -12 -7 -9 -20z"/>
<path d="M2280 2439 c0 -11 5 -17 10 -14 6 3 10 13 10 21 0 8 -4 14 -10 14 -5
0 -10 -9 -10 -21z"/>
<path d="M2397 2446 c-6 -14 0 -26 13 -26 3 0 6 9 7 20 2 23 -12 27 -20 6z"/>
<path d="M2737 2493 c-4 -6 -3 -22 2 -36 5 -14 7 -28 4 -31 -4 -3 1 -6 11 -6
10 0 14 5 10 12 -4 6 -10 25 -13 42 -4 18 -10 26 -14 19z"/>
<path d="M2960 2400 c0 -5 24 -13 53 -20 111 -24 143 -32 164 -42 11 -6 27 -8
35 -6 7 3 -3 12 -24 21 -46 20 -228 57 -228 47z"/>
<path d="M3425 2143 c-7 -20 -6 -23 5 -23 5 0 14 8 19 18 7 14 6 19 -4 19 -8
0 -17 -7 -20 -14z"/>
<path d="M3420 2095 c0 -8 5 -15 10 -15 6 0 10 7 10 15 0 8 -4 15 -10 15 -5 0
-10 -7 -10 -15z"/>
<path d="M2620 1789 c-19 -10 -30 -18 -25 -19 6 0 2 -5 -7 -11 -10 -5 -18 -17
-18 -24 0 -21 -33 -18 -58 5 -11 11 -23 16 -27 11 -3 -5 8 -19 25 -31 39 -28
39 -47 -1 -45 -31 2 -77 -33 -106 -80 -11 -18 -12 -17 -6 10 7 33 45 75 69 75
7 0 14 5 14 11 0 5 5 7 10 4 6 -3 10 0 10 8 0 17 -50 37 -92 37 -79 0 -135
-77 -141 -195 -2 -40 -22 -75 -43 -75 -7 0 -14 -7 -18 -15 -8 -22 -25 -18 -37
9 -13 27 -93 78 -83 52 3 -9 10 -16 15 -16 15 0 60 -51 53 -61 -7 -12 -34 8
-34 26 0 14 -39 43 -80 61 -45 19 -105 -2 -158 -55 -44 -44 -100 -135 -95
-153 2 -4 -1 -8 -6 -8 -5 0 -8 -11 -7 -24 4 -35 -14 -60 -69 -98 -33 -22 -65
-34 -92 -36 -37 -3 -46 1 -81 36 -52 52 -70 119 -49 180 17 49 5 66 -17 25
-15 -28 -15 -28 -12 -3 3 14 5 31 5 38 1 13 31 17 31 4 0 -15 74 -44 125 -49
43 -4 56 -1 96 25 66 43 96 114 65 155 -18 24 -29 21 -15 -4 23 -44 -1 -94
-74 -149 -24 -18 -112 -14 -143 7 -38 25 -28 32 23 17 59 -18 77 -18 118 1 58
28 74 108 31 157 -30 36 -98 60 -150 53 -62 -8 -68 -10 -103 -28 -32 -17 -35
-17 -80 5 -50 23 -152 34 -182 18 -9 -4 -35 -16 -59 -26 -49 -20 -55 -26 -46
-48 8 -21 27 -20 74 4 52 26 133 26 180 -1 28 -16 30 -19 10 -14 -14 3 -54 8
-90 11 -51 5 -69 2 -85 -11 -21 -17 -25 -17 55 -2 3 1 29 -2 58 -6 51 -8 64
-18 40 -34 -39 -25 -79 -229 -48 -248 5 -3 8 -11 5 -16 -4 -5 -2 -9 3 -9 5 0
12 -9 15 -20 8 -31 9 -33 36 -59 40 -41 83 -66 143 -85 83 -26 148 -12 250 51
48 29 55 29 26 -1 -62 -66 -187 -96 -281 -69 -60 17 -73 10 -22 -11 55 -23
162 -21 216 5 70 33 92 46 101 63 7 13 15 12 55 -9 25 -14 55 -25 67 -25 12 0
28 -5 36 -10 11 -7 5 -10 -22 -10 -21 0 -38 -4 -38 -9 0 -6 23 -8 50 -6 77 5
127 42 195 145 23 36 43 77 44 93 1 15 2 33 3 41 2 16 75 49 83 36 5 -8 0
-110 -6 -113 -2 -1 -22 -12 -44 -24 -22 -12 -44 -30 -50 -40 -5 -10 -12 -20
-15 -23 -6 -6 -11 -27 -13 -59 -3 -37 35 -72 84 -78 33 -5 38 -8 23 -13 -11
-4 -32 -6 -47 -5 -15 2 -27 -1 -27 -7 0 -7 21 -9 55 -6 63 5 138 47 170 94 19
27 23 29 40 18 11 -7 39 -15 62 -18 33 -4 49 1 81 21 34 22 81 84 84 110 0 5
4 18 9 31 5 13 9 30 9 38 0 8 4 14 9 14 14 0 3 -57 -23 -114 -14 -29 -41 -67
-62 -84 -33 -27 -43 -30 -100 -29 -68 2 -85 -7 -31 -17 55 -10 135 13 157 45
8 12 22 28 30 37 21 22 50 101 50 139 0 28 5 33 43 48 41 16 45 15 78 -3 84
-48 196 -33 270 37 24 22 47 41 51 41 5 0 8 7 8 15 0 8 7 15 15 15 28 0 21
-11 -53 -82 -31 -30 -128 -69 -176 -70 -26 0 -49 -5 -53 -11 -12 -19 115 0
174 28 32 14 77 45 101 68 23 22 42 36 42 30 0 -20 111 -55 154 -50 23 3 35 2
29 -4 -5 -5 -21 -10 -36 -11 -31 -3 -37 -18 -8 -18 32 0 138 36 183 63 73 42
98 79 114 165 4 20 1 22 -21 16 -14 -3 -38 -18 -54 -33 -31 -29 -124 -79 -159
-86 -14 -2 -30 4 -42 17 l-20 21 53 30 c28 16 59 37 67 46 28 29 55 76 54 91
-1 8 -2 27 -3 42 -1 32 -44 87 -55 70 -3 -6 3 -16 14 -22 11 -6 20 -18 20 -27
0 -11 -10 -5 -32 19 -52 57 -116 68 -184 32 -18 -10 -38 -28 -45 -41 -7 -13
-15 -21 -17 -18 -6 6 -36 -35 -38 -52 -1 -6 -7 -27 -12 -45 -6 -18 -10 -42 -9
-53 2 -26 -51 -100 -83 -116 -14 -7 -32 -19 -42 -27 -18 -15 -70 -13 -75 3 -1
6 13 21 32 34 85 58 125 113 125 173 0 41 -18 83 -37 83 -4 1 -17 6 -29 12
-35 20 -78 21 -114 2 -39 -20 -80 -55 -80 -69 0 -6 -7 -10 -15 -10 -8 0 -15
-6 -15 -14 0 -8 -8 -21 -19 -28 -10 -7 -18 -17 -19 -21 0 -4 -3 -18 -7 -30 -4
-12 -8 -33 -10 -47 -6 -45 -10 -55 -25 -62 -37 -17 -41 -10 -39 70 2 47 7 79
13 79 6 0 20 4 31 8 16 5 15 3 -5 -14 -20 -16 -22 -21 -8 -21 19 0 68 48 68
66 0 7 -7 15 -16 18 -12 5 -14 1 -9 -17 l7 -22 -16 21 c-11 15 -23 20 -41 17
-33 -7 -34 19 0 52 30 31 68 32 88 3 14 -21 16 -21 22 -5 12 29 -4 82 -32 108
-18 17 -24 19 -20 7 5 -14 2 -15 -26 -6 -53 17 -100 16 -137 -3z m130 -59 c0
-5 -4 -10 -9 -10 -4 0 -20 -12 -35 -27 l-27 -27 11 29 c6 16 17 33 23 37 17
11 37 10 37 -2z m37 4 c-3 -3 -12 -4 -19 -1 -8 3 -5 6 6 6 11 1 17 -2 13 -5z
m28 -4 c3 -5 1 -10 -4 -10 -6 0 -11 5 -11 10 0 6 2 10 4 10 3 0 8 -4 11 -10z
m580 -58 c18 -12 11 -37 -18 -65 -23 -24 -28 -26 -34 -12 -6 18 21 85 34 85 5
0 13 -4 18 -8z m97 -22 c3 -16 1 -30 -4 -30 -4 0 -8 14 -8 30 0 17 2 30 4 30
2 0 6 -13 8 -30z m-947 -1 c4 -5 1 -9 -6 -9 -7 0 -9 -10 -7 -25 5 -23 1 -26
-39 -36 -24 -6 -46 -15 -49 -20 -3 -5 -12 -9 -20 -9 -11 0 -9 11 11 49 13 27
30 51 37 54 24 8 68 6 73 -4z m429 -37 c-17 -15 -36 -46 -43 -69 -8 -23 -20
-44 -27 -47 -16 -6 -17 -2 -5 22 5 9 19 39 32 66 13 26 32 52 44 56 31 12 31
2 -1 -28z m344 -3 c-3 -34 -18 -52 -18 -20 0 21 10 51 16 51 2 0 3 -14 2 -31z
m-302 -4 c-4 -22 -47 -75 -61 -75 -13 0 8 46 34 72 32 33 32 33 27 3z m77 -19
c-7 -35 -64 -98 -123 -136 -30 -19 -47 -37 -43 -44 4 -6 -1 -5 -10 3 -17 13
-17 21 -1 24 27 6 164 138 164 158 0 11 4 19 9 19 4 0 6 -11 4 -24z m-412 -77
c1 -104 -1 -119 -9 -119 -5 0 -8 24 -6 53 1 28 3 72 3 96 1 68 12 41 12 -30z
m769 55 c-8 -8 -23 -20 -34 -25 -13 -6 -10 0 9 15 34 29 43 33 25 10z m-1840
-4 c0 -6 -59 -30 -73 -30 -18 0 -4 19 21 28 32 10 52 11 52 2z m42 -16 c3 -3
4 -14 1 -25 -4 -15 -14 -19 -44 -19 -41 0 -49 9 -24 30 8 7 15 9 15 4 0 -4 5
-3 12 4 13 13 31 16 40 6z m888 -22 c0 -10 -99 -46 -106 -39 -6 5 75 46 94 47
6 0 12 -4 12 -8z m830 -12 c-28 -22 -48 -27 -28 -7 12 12 35 24 48 26 3 0 -6
-8 -20 -19z m-41 -52 c1 -5 -3 -8 -8 -8 -11 0 -21 37 -13 45 6 5 20 -19 21
-37z m-793 -24 l-1 -55 -54 -30 c-29 -16 -55 -29 -56 -27 -4 4 -7 57 -6 100 1
33 4 37 44 51 72 25 74 24 73 -39z m1046 11 c-12 -14 -31 -34 -44 -44 -28 -21
-129 -63 -136 -56 -3 2 4 7 14 11 67 23 108 48 141 83 40 44 58 48 25 6z
m-1183 -55 c-1 -44 -5 -80 -9 -80 -4 0 -6 33 -5 73 3 83 3 87 10 87 3 0 5 -36
4 -80z m-433 1 c-14 -22 -26 -47 -26 -54 0 -7 -6 -21 -13 -31 -23 -32 -7 55
16 89 42 60 61 57 23 -4z m72 -32 c33 -19 39 -56 12 -79 -11 -10 -20 -24 -20
-32 0 -21 -34 -58 -54 -58 -19 0 -46 56 -39 79 3 9 14 35 24 58 10 24 19 46
19 51 0 4 6 14 13 21 10 10 13 9 15 -6 1 -10 15 -25 30 -34z m206 27 c-22 -17
-54 -27 -54 -18 1 9 63 41 69 36 3 -2 -4 -11 -15 -18z m-72 -28 c-5 -7 -15
-37 -21 -67 -12 -59 -51 -122 -51 -83 0 11 4 23 9 26 5 3 12 30 15 60 6 41 12
56 29 64 29 14 31 14 19 0z m604 3 c-3 -4 -19 -11 -35 -14 -16 -3 -36 -13 -44
-22 -18 -18 -27 -19 -27 -5 0 6 19 20 43 30 45 21 72 26 63 11z m-1300 -138
c-2 -2 -11 9 -19 26 -8 16 -12 32 -9 36 3 3 12 -9 19 -26 7 -18 11 -34 9 -36z
m1039 57 c-11 -5 -27 -9 -35 -9 -13 -1 -13 0 0 9 8 5 24 9 35 9 l20 0 -20 -9z
m-3 -73 c-10 -21 -21 -34 -25 -31 -4 4 -7 0 -7 -8 0 -12 -45 -38 -64 -38 -1 0
-2 22 -2 50 -1 47 0 50 30 59 82 25 93 20 68 -32z m-117 1 c-3 -76 -15 -105
-56 -142 -23 -20 -45 -36 -51 -36 -6 0 1 9 14 20 14 10 31 33 38 50 7 16 15
30 19 30 3 0 7 19 9 43 1 23 5 50 8 60 10 32 21 17 19 -25z m-452 -37 c-7 -9
-22 15 -28 44 -6 30 -6 30 13 -5 10 -19 17 -37 15 -39z m-442 22 c13 -16 12
-17 -3 -4 -17 13 -22 21 -14 21 2 0 10 -8 17 -17z m589 -17 c0 -8 -8 -24 -18
-37 -15 -17 -21 -19 -27 -9 -5 8 -4 11 2 7 6 -4 16 7 23 23 14 33 20 38 20 16z
m150 -21 c-5 -14 -7 -25 -5 -25 3 0 -3 -9 -12 -19 -17 -20 -43 -18 -43 4 0 11
54 65 66 65 2 0 -1 -11 -6 -25z m-221 -64 c-13 -11 -33 -20 -44 -21 -14 0 -8
7 20 24 47 27 58 25 24 -3z"/>
<path d="M1600 573 c0 -14 49 -58 56 -50 6 6 -5 19 -39 46 -9 7 -17 9 -17 4z"/>
<path d="M1382 3829 c2 -7 10 -15 17 -17 8 -3 12 1 9 9 -2 7 -10 15 -17 17 -8
3 -12 -1 -9 -9z"/>
<path d="M1500 3821 c0 -12 5 -21 10 -21 6 0 10 6 10 14 0 8 -4 18 -10 21 -5
3 -10 -3 -10 -14z"/>
<path d="M1740 3826 c0 -8 5 -18 10 -21 6 -3 10 3 10 14 0 12 -4 21 -10 21 -5
0 -10 -6 -10 -14z"/>
<path d="M1420 3801 c0 -6 5 -13 10 -16 6 -3 10 1 10 9 0 9 -4 16 -10 16 -5 0
-10 -4 -10 -9z"/>
<path d="M1389 3795 c0 -6 -2 -25 -3 -43 -2 -18 0 -34 4 -37 11 -7 19 68 9 80
-6 5 -9 5 -10 0z"/>
<path d="M1310 3770 c0 -11 5 -20 10 -20 6 0 10 9 10 20 0 11 -4 20 -10 20 -5
0 -10 -9 -10 -20z"/>
<path d="M1516 3775 c4 -8 10 -12 15 -9 11 6 2 24 -11 24 -5 0 -7 -7 -4 -15z"/>
<path d="M1735 3772 c-8 -27 -51 -45 -75 -32 -27 14 -34 12 -20 -5 19 -23 62
-18 93 10 27 26 35 45 18 45 -5 0 -12 -8 -16 -18z"/>
<path d="M1207 3766 c-4 -10 -5 -21 -2 -24 9 -9 17 6 13 25 -3 17 -4 17 -11
-1z"/>
<path d="M1610 3770 c0 -5 5 -10 10 -10 6 0 10 5 10 10 0 6 -4 10 -10 10 -5 0
-10 -4 -10 -10z"/>
<path d="M1434 3754 c3 -9 6 -29 6 -45 0 -16 5 -29 11 -29 7 0 9 14 5 38 -3
20 -5 40 -6 45 0 4 -5 7 -11 7 -6 0 -8 -7 -5 -16z"/>
<path d="M1530 3730 c0 -11 5 -20 10 -20 6 0 10 -7 10 -15 0 -17 39 -65 54
-65 5 0 0 10 -11 23 -11 12 -27 39 -37 60 -19 42 -26 46 -26 17z"/>
<path d="M1316 3726 c3 -9 11 -16 16 -16 13 0 5 23 -10 28 -7 2 -10 -2 -6 -12z"/>
<path d="M1200 3715 c0 -8 4 -15 10 -15 5 0 7 7 4 15 -4 8 -8 15 -10 15 -2 0
-4 -7 -4 -15z"/>
<path d="M1330 3681 c0 -12 5 -21 10 -21 6 0 10 6 10 14 0 8 -4 18 -10 21 -5
3 -10 -3 -10 -14z"/>
<path d="M1395 3683 c5 -10 9 -29 10 -43 1 -14 3 -27 4 -30 1 -3 4 -13 6 -23
4 -22 13 -32 21 -25 3 4 1 15 -5 26 -6 12 -11 34 -11 51 0 36 -9 61 -22 61 -6
0 -7 -7 -3 -17z"/>
<path d="M1205 3668 c4 -13 13 -36 20 -53 18 -41 28 -68 31 -82 3 -18 52 -68
59 -61 4 3 -2 14 -12 24 -19 19 -29 37 -59 109 -17 40 -20 48 -22 73 -1 6 -7
12 -13 12 -6 0 -8 -9 -4 -22z"/>
<path d="M1450 3656 c0 -8 5 -18 10 -21 6 -3 10 -17 10 -31 0 -13 5 -24 10
-24 13 0 13 16 -2 57 -12 34 -28 44 -28 19z"/>
<path d="M1340 3631 c0 -11 5 -23 10 -26 6 -3 10 -15 10 -26 0 -10 5 -19 11
-19 7 0 8 7 4 18 -4 9 -10 29 -13 45 -5 31 -22 37 -22 8z"/>
<path d="M1374 3534 c3 -9 6 -18 6 -20 0 -3 4 -3 10 1 11 7 2 35 -12 35 -6 0
-7 -7 -4 -16z"/>
<path d="M1430 3531 c0 -12 5 -21 10 -21 6 0 10 6 10 14 0 8 -4 18 -10 21 -5
3 -10 -3 -10 -14z"/>
<path d="M1392 3489 c2 -7 10 -15 17 -17 8 -3 12 1 9 9 -2 7 -10 15 -17 17 -8
3 -12 -1 -9 -9z"/>
<path d="M1442 3489 c2 -7 10 -15 17 -17 8 -3 12 1 9 9 -2 7 -10 15 -17 17 -8
3 -12 -1 -9 -9z"/>
<path d="M2177 2773 c-10 -16 11 -39 23 -27 8 8 7 14 -4 23 -8 7 -17 8 -19 4z"/>
<path d="M376 1432 c-4 -7 -3 -12 3 -12 5 0 13 -9 16 -20 3 -11 11 -20 16 -20
14 0 11 16 -9 41 -13 15 -21 19 -26 11z"/>
</g>
</svg>
