<?xml version="1.0" standalone="no"?>
<!DOCTYPE svg PUBLIC "-//W3C//DTD SVG 20010904//EN"
 "http://www.w3.org/TR/2001/REC-SVG-20010904/DTD/svg10.dtd">
<svg version="1.0" xmlns="http://www.w3.org/2000/svg"
 width="536.000000pt" height="536.000000pt" viewBox="0 0 536.000000 536.000000"
 preserveAspectRatio="xMidYMid meet">
<metadata>
Created by potrace 1.14, written by Peter Selinger 2001-2017
</metadata>
<g transform="translate(0.000000,536.000000) scale(0.100000,-0.100000)"
fill="#000000" stroke="none">
<path d="M1594 4826 c-28 -7 -71 -26 -96 -43 -25 -17 -69 -36 -99 -43 -99 -23
-178 -91 -206 -177 -9 -29 -21 -53 -27 -53 -20 0 -84 -67 -105 -108 -12 -23
-26 -65 -32 -93 -6 -29 -22 -73 -35 -97 -43 -81 -29 -252 28 -355 20 -35 23
-48 15 -72 -14 -40 5 -110 54 -209 108 -214 312 -405 546 -512 182 -83 319
-94 583 -44 290 54 370 69 630 120 139 28 269 52 287 54 18 3 56 9 85 15 129
27 529 104 701 135 103 18 190 36 194 40 15 14 -10 16 -108 5 -196 -21 -332 3
-414 74 l-38 33 31 13 c40 17 40 24 -1 49 -18 10 -43 35 -54 55 -18 30 -19 36
-6 41 26 10 50 6 64 -11 21 -24 89 -53 129 -53 41 0 93 29 111 61 10 20 9 21
-7 14 -54 -23 -70 -18 -110 31 -21 26 -56 65 -76 87 -21 21 -38 41 -38 43 0
12 29 1 45 -16 26 -29 45 -25 45 9 0 20 8 34 25 45 36 24 61 64 47 78 -8 8
-15 8 -27 -2 -20 -17 -125 -5 -182 21 -53 24 -67 24 -119 -1 l-42 -21 -34 21
c-18 11 -45 20 -59 20 -30 0 -95 -25 -104 -40 -3 -5 -21 -10 -38 -10 -18 0
-50 -9 -72 -19 -42 -19 -105 -82 -105 -105 0 -8 -7 -19 -16 -27 -25 -21 -51
-80 -58 -134 -9 -63 16 -148 67 -227 l36 -56 -50 -7 c-110 -15 -245 19 -316
80 -88 75 -114 205 -60 298 29 49 47 65 148 130 l65 43 30 -18 c41 -25 109
-23 172 7 52 24 68 45 34 45 -22 0 -58 32 -65 57 -3 10 -8 35 -12 55 -3 22
-15 44 -28 53 l-22 16 26 22 c51 43 63 100 33 163 -18 37 -52 67 -66 58 -4 -3
-8 -21 -8 -40 0 -35 -28 -74 -54 -74 -7 0 -25 15 -39 34 -35 45 -88 69 -153
67 -44 -1 -54 3 -67 22 -22 33 -74 47 -139 35 -29 -5 -57 -13 -63 -18 -5 -4
-36 -8 -69 -9 l-58 -1 6 28 c4 15 9 52 12 82 4 45 1 62 -18 95 -27 46 -89 84
-145 89 -31 3 -42 10 -62 42 -59 93 -150 126 -260 93 -31 -9 -43 -9 -62 4 -37
23 -69 26 -125 13z m100 -37 c18 -14 26 -30 26 -50 0 -44 34 -36 38 8 3 29 8
34 43 43 94 26 206 -44 216 -135 6 -48 21 -55 38 -17 8 19 15 21 40 16 101
-21 151 -99 133 -207 -12 -66 -23 -67 -31 -1 -6 56 -32 85 -77 87 -42 2 -50
-18 -11 -26 42 -9 58 -40 65 -129 6 -92 23 -128 71 -158 27 -17 47 -21 88 -18
47 3 52 1 55 -19 5 -33 -34 -67 -66 -58 -51 13 -81 8 -123 -24 -53 -38 -101
-41 -150 -8 -34 23 -34 23 -34 104 -1 95 -15 128 -61 143 -37 13 -84 4 -84
-16 0 -10 8 -12 29 -8 39 8 81 -31 81 -76 0 -95 -110 -155 -149 -82 -6 11 -6
24 0 33 15 25 10 27 -33 17 -54 -14 -108 -53 -122 -90 -6 -15 -14 -28 -18 -28
-17 0 -7 63 14 92 16 23 19 35 11 47 -12 18 -63 31 -107 25 -16 -2 -33 1 -37
8 -4 6 -14 8 -22 5 -12 -4 -13 -13 -7 -43 11 -50 -4 -79 -55 -104 -57 -27 -91
-26 -121 7 -31 33 -40 67 -25 99 10 22 9 24 -19 24 -20 0 -33 7 -41 22 -8 15
-14 18 -17 10 -2 -7 4 -22 14 -33 9 -10 15 -21 12 -24 -8 -8 -58 46 -58 61 0
9 -12 14 -31 14 -32 0 -32 0 -26 -44 4 -30 2 -54 -9 -75 -9 -17 -14 -37 -11
-44 2 -6 11 5 20 26 9 20 21 37 26 37 14 0 14 -23 1 -36 -13 -13 -24 -97 -16
-128 11 -45 21 -28 18 30 -4 60 12 114 34 114 17 0 17 0 -2 -39 -19 -38 -14
-99 10 -136 18 -27 84 -80 91 -73 3 2 -18 28 -45 56 -45 46 -50 57 -50 96 0
34 6 52 25 73 20 23 26 25 34 14 7 -10 4 -22 -10 -39 -10 -14 -19 -34 -19 -46
0 -35 36 -82 81 -107 48 -27 69 -67 28 -54 l-22 7 22 -30 c12 -17 17 -33 12
-36 -5 -3 -12 1 -15 10 -3 8 -23 22 -43 30 -21 9 -48 25 -60 37 -13 11 -26 18
-29 14 -11 -11 15 -34 62 -56 50 -24 76 -63 54 -84 -10 -9 -14 -9 -17 2 -8 20
-41 51 -55 51 -6 0 -1 -12 13 -26 20 -22 24 -36 25 -97 1 -82 24 -150 48 -141
12 5 11 14 -6 65 -19 57 -19 89 1 89 18 0 51 -67 57 -116 4 -27 12 -56 19 -64
27 -32 44 -80 60 -166 27 -142 47 -166 170 -203 39 -11 104 -40 146 -64 105
-60 153 -81 232 -102 103 -28 84 -38 -55 -32 -132 5 -228 31 -348 92 -74 37
-200 123 -200 136 0 6 5 7 10 4 20 -12 9 3 -31 46 -72 76 -125 142 -164 204
-21 33 -40 54 -42 47 -6 -15 90 -150 165 -232 75 -83 48 -75 -38 11 -129 130
-240 316 -247 414 l-3 50 18 -60 c19 -64 60 -145 74 -145 11 0 10 17 -1 24
-13 8 -51 84 -51 102 0 25 16 8 40 -42 14 -31 25 -43 31 -37 16 16 0 59 -54
141 -28 42 -63 102 -78 132 -53 108 -62 239 -20 318 10 20 24 62 30 93 7 31
23 74 37 95 31 47 76 83 82 66 2 -7 10 -12 17 -12 8 0 16 19 20 49 12 87 87
179 165 201 29 8 32 7 27 -10 -8 -33 17 -23 51 19 37 46 122 91 173 91 22 0
47 -8 63 -21z m820 -413 c19 -8 37 -24 41 -35 6 -19 12 -21 55 -15 70 9 111
-8 165 -72 36 -42 53 -54 75 -54 16 0 32 5 35 10 3 6 -3 10 -14 10 -12 0 -21
2 -21 4 0 2 17 21 37 41 34 34 38 36 50 19 18 -24 16 -85 -2 -111 -9 -13 -34
-28 -55 -34 -39 -12 -54 -29 -26 -29 33 0 65 -41 72 -90 6 -48 18 -66 59 -95
19 -13 19 -14 -8 -24 -83 -32 -155 6 -203 107 -29 60 -48 81 -76 82 -24 0 -22
-11 6 -38 14 -12 27 -35 31 -51 3 -16 15 -38 26 -50 l20 -22 -31 -29 c-34 -32
-76 -45 -119 -35 -41 9 -63 37 -68 90 -6 52 -20 58 -36 15 -14 -36 -53 -55
-88 -42 -23 10 -79 62 -65 62 4 0 2 9 -4 20 -6 11 -20 20 -30 20 -22 0 -26
-10 -9 -27 7 -7 9 -23 5 -38 l-7 -26 -28 30 c-40 43 -77 41 -124 -4 -20 -19
-45 -35 -57 -35 -30 0 -72 45 -68 74 1 13 -6 33 -16 45 -11 12 -15 21 -9 21
16 0 41 -24 45 -44 1 -11 8 -21 14 -23 7 -2 10 6 7 22 -7 31 21 35 37 5 14
-27 30 -25 27 2 -1 15 4 23 17 26 10 2 28 13 40 24 31 29 54 40 61 28 3 -5 24
-10 46 -10 32 0 47 7 71 30 26 27 30 36 25 67 -4 19 -8 38 -11 40 -3 3 -23 -2
-44 -10 -36 -14 -42 -14 -73 1 -25 12 -38 29 -48 59 -19 54 -5 73 53 73 42 0
70 -13 118 -58 25 -23 28 -23 34 -8 4 11 -3 27 -21 46 -21 22 -25 31 -14 34 8
2 21 7 29 9 25 9 39 8 74 -7z m-1324 -101 c0 -9 11 -27 25 -41 31 -31 32 -37
1 -23 -32 15 -62 79 -36 79 6 0 10 -7 10 -15z m453 -51 c3 -4 -4 -21 -17 -38
-32 -42 -52 -84 -61 -125 -11 -51 10 -30 24 24 13 51 31 60 31 16 0 -21 9 -37
34 -58 34 -27 35 -30 25 -70 -5 -23 -6 -61 -4 -85 8 -57 34 -146 46 -153 13
-9 11 5 -12 76 -25 77 -22 178 6 209 10 11 13 20 8 20 -12 0 42 106 58 116 23
14 21 -9 -4 -54 -30 -55 -56 -145 -52 -182 1 -14 3 -40 4 -57 0 -18 5 -33 9
-33 5 0 8 37 8 83 0 61 6 97 23 139 25 64 35 75 56 58 11 -9 10 -18 -6 -55
-23 -52 -35 -130 -21 -139 6 -3 11 16 14 48 5 66 37 130 66 134 25 4 27 -3 7
-38 -20 -35 -18 -188 3 -271 21 -80 70 -163 134 -226 36 -36 51 -44 59 -36 9
9 0 24 -37 63 -63 65 -89 110 -114 189 -20 63 -27 156 -12 165 4 2 9 19 10 36
3 42 28 100 43 100 7 0 8 -7 4 -17 -23 -54 -35 -113 -35 -164 0 -96 17 -75 22
26 4 97 17 130 40 107 8 -8 8 -15 1 -24 -6 -7 -13 -26 -17 -43 -4 -16 -9 -38
-12 -47 -3 -10 -1 -18 5 -18 6 0 11 6 11 14 0 8 5 27 11 43 l11 28 9 -24 c7
-17 6 -27 -2 -32 -15 -9 -6 -126 15 -194 32 -103 130 -237 231 -315 71 -54 82
-47 14 10 -162 137 -237 263 -247 417 -5 81 -1 92 27 74 10 -7 12 -21 8 -52
-7 -56 8 -127 44 -208 34 -74 106 -174 119 -166 5 3 -10 30 -34 59 -56 69 -93
152 -107 235 -13 79 -2 121 32 121 15 0 19 -4 15 -16 -18 -47 -28 -108 -22
-138 11 -58 21 -48 19 18 -2 70 18 125 62 169 31 30 56 34 75 12 10 -13 10
-19 -2 -33 -35 -40 -82 -182 -60 -182 5 0 12 15 15 34 8 53 48 139 60 127 6
-6 0 -33 -17 -74 -33 -83 -36 -237 -5 -237 5 0 6 12 2 28 -17 58 -8 145 19
202 30 64 73 118 84 107 4 -4 -4 -20 -18 -35 -33 -35 -64 -97 -74 -146 -5 -28
-4 -37 5 -32 6 4 11 17 11 28 0 53 84 179 109 164 7 -5 2 -15 -12 -29 -13 -12
-37 -44 -53 -72 -26 -45 -29 -59 -29 -140 0 -70 4 -99 20 -129 25 -51 41 -55
49 -15 4 23 1 38 -10 50 -9 10 -19 39 -21 64 -5 37 -3 45 11 45 9 0 16 5 16
12 0 6 12 35 26 64 25 50 111 144 134 144 17 0 12 -9 -24 -41 -75 -65 -124
-194 -112 -293 4 -31 10 -56 14 -56 4 0 7 42 7 93 0 80 4 98 27 142 27 51 95
129 107 123 3 -2 20 -10 36 -18 17 -8 32 -15 34 -17 3 -2 -7 -16 -21 -31 -42
-44 -68 -105 -74 -173 -6 -59 -3 -69 28 -129 21 -41 49 -76 76 -97 24 -18 39
-33 34 -33 -15 0 -86 55 -115 89 -37 45 -34 18 4 -30 36 -46 130 -95 213 -110
57 -10 227 -6 261 7 9 4 33 -6 58 -22 l42 -29 -35 -3 c-19 -2 -109 -2 -200 0
-145 4 -171 7 -217 28 -29 12 -53 29 -53 36 0 7 -12 20 -27 28 -80 41 -133
136 -133 236 0 80 25 138 83 199 23 24 33 39 22 33 -31 -16 -71 -62 -96 -112
-48 -91 -26 -237 47 -315 13 -14 24 -28 24 -31 0 -14 -25 2 -69 47 -56 56 -70
51 -20 -6 37 -42 97 -79 189 -118 60 -25 62 -27 25 -22 -22 3 -86 27 -141 55
-76 37 -119 66 -169 115 -83 80 -101 77 -21 -4 106 -107 258 -179 417 -197 32
-4 59 -3 59 2 0 5 88 9 194 9 259 0 269 -11 54 -55 -319 -66 -578 -39 -741 76
-56 40 -69 43 -37 9 24 -26 177 -105 203 -105 9 0 18 -4 21 -9 4 -5 -18 -3
-46 5 -63 17 -58 16 -58 5 0 -10 124 -41 164 -41 14 0 28 -4 31 -10 8 -13
-155 -6 -220 10 -27 7 -84 29 -125 49 -97 47 -94 45 -86 32 22 -34 230 -111
303 -111 49 0 48 -17 -1 -23 -41 -6 -130 12 -209 42 -15 6 -27 7 -27 1 0 -5
26 -16 58 -25 91 -25 90 -25 69 -37 -60 -33 -258 19 -391 103 -43 27 -81 47
-84 45 -17 -18 163 -116 261 -142 37 -10 67 -22 67 -27 0 -15 -119 3 -194 28
-38 13 -113 49 -168 79 -54 31 -127 63 -162 72 -117 29 -146 59 -171 170 -24
103 -46 167 -66 189 -9 11 -19 40 -22 65 -5 57 -14 78 -44 111 l-24 26 21 37
c39 65 22 176 -26 176 -7 0 -25 10 -40 23 -23 20 -25 26 -15 46 16 29 37 21
33 -13 -3 -31 15 -36 20 -4 2 12 9 23 17 26 10 3 12 -3 6 -27 -4 -18 -3 -31 3
-31 5 0 12 13 15 29 5 26 40 51 52 39 3 -2 -2 -26 -10 -53 -17 -56 -19 -154
-4 -207 11 -40 33 -54 24 -15 -26 107 -18 226 21 284 23 36 29 20 10 -27 -9
-22 -12 -40 -7 -40 4 0 18 26 30 58 23 60 69 137 77 129 3 -3 -6 -27 -19 -54
-66 -129 -86 -253 -63 -377 16 -79 67 -206 92 -227 20 -16 17 -4 -9 44 -51 91
-70 165 -70 277 -1 114 14 184 60 275 36 72 49 85 66 69z m96 -103 c-35 -56
-45 -59 -34 -12 6 27 52 77 62 67 2 -2 -11 -27 -28 -55z m-439 -15 c0 -8 -4
-18 -10 -21 -5 -3 -10 3 -10 14 0 12 5 21 10 21 6 0 10 -6 10 -14z m635 -46
c-9 -18 -18 -41 -20 -52 -7 -33 -15 -34 -15 -2 0 29 36 101 46 91 3 -3 -2 -19
-11 -37z m1388 -121 c12 -6 32 -21 45 -32 l22 -21 33 32 c36 35 73 41 110 18
19 -12 106 -29 156 -31 8 0 16 -6 19 -13 2 -8 -8 -12 -30 -12 -19 0 -39 -5
-45 -11 -6 -6 -49 -11 -102 -10 -51 0 -91 -4 -91 -9 0 -6 14 -10 32 -10 49 0
112 -44 174 -121 31 -39 67 -75 80 -81 32 -15 31 -28 -2 -28 -36 0 -79 29
-136 89 -27 28 -59 53 -74 57 -31 8 -86 -7 -92 -25 -3 -10 0 -11 16 -2 11 6
28 11 37 11 20 0 75 -37 75 -50 0 -18 -49 -22 -72 -6 -24 17 -58 22 -58 8 0
-4 12 -19 28 -33 15 -14 44 -49 64 -77 36 -50 36 -52 14 -52 -13 0 -31 9 -41
20 -21 24 -41 26 -49 5 -11 -29 -96 -6 -110 31 -5 13 -9 14 -21 4 -13 -11 -12
-16 6 -41 15 -21 17 -29 7 -29 -8 0 -25 18 -37 41 -18 31 -22 51 -18 85 2 24
3 44 0 44 -2 0 -20 -12 -38 -26 -50 -37 -120 -56 -164 -44 -32 9 -38 7 -53
-13 -24 -30 -23 -44 2 -22 19 17 19 17 13 -19 -4 -25 -2 -36 6 -36 7 0 10 8 7
18 -7 21 8 47 22 38 6 -4 9 -14 5 -24 -3 -11 1 -9 11 6 10 12 22 20 27 16 6
-4 6 -11 -2 -20 -6 -8 -7 -14 -2 -14 5 0 15 11 21 25 6 14 16 25 22 25 13 0
13 -27 -1 -35 -7 -5 -5 -15 5 -31 31 -47 8 -130 -32 -116 -19 6 -14 -29 9 -67
25 -42 19 -49 -19 -23 -92 66 -163 192 -163 290 -1 95 33 157 106 195 29 16
29 16 6 17 -24 0 -24 0 -5 21 24 27 67 49 94 49 17 0 19 -4 14 -25 -8 -33 23
-35 35 -2 5 12 17 32 28 44 16 18 30 24 76 32 5 0 18 -4 30 -10z m-843 -49 c0
-5 -6 -13 -13 -17 -8 -4 -29 -29 -48 -54 -19 -25 -40 -44 -47 -41 -7 2 -20
-14 -29 -35 -12 -27 -18 -33 -21 -20 -4 20 34 93 75 142 19 23 37 34 56 34 15
1 27 -3 27 -9z m-117 -178 c-3 -12 -9 -22 -14 -22 -5 0 -3 11 3 25 13 30 20
28 11 -3z m870 -99 c3 -10 8 -31 12 -48 6 -27 5 -28 -9 -15 -19 19 -33 80 -18
80 6 0 13 -8 15 -17z m-15 -65 c9 -11 11 -18 4 -18 -14 0 -32 33 -31 57 1 16
2 15 6 -2 3 -11 12 -28 21 -37z m-868 12 c8 -16 8 -20 -3 -20 -8 0 -17 9 -20
20 -3 11 -1 20 4 20 4 0 13 -9 19 -20z m1115 -60 c7 -21 65 -74 73 -66 3 3 -7
15 -21 27 -15 11 -27 25 -27 30 0 19 21 8 50 -25 17 -19 46 -41 65 -50 32 -15
47 -36 27 -36 -34 0 -119 37 -161 70 -55 43 -72 39 -20 -5 67 -56 108 -68 264
-80 38 -3 74 -10 79 -15 7 -7 6 -10 0 -10 -6 0 -86 -15 -180 -34 -259 -52
-254 -52 -261 -27 -3 13 -13 21 -27 21 -39 0 -66 12 -66 29 0 9 -9 22 -21 29
-12 7 -19 16 -16 19 3 3 18 -4 34 -15 34 -24 73 -37 73 -24 0 5 -18 17 -39 27
-40 18 -109 80 -99 90 3 3 21 -10 41 -30 19 -19 41 -35 48 -35 7 0 -11 25 -41
55 -29 30 -51 58 -47 61 4 4 26 -13 49 -38 45 -47 101 -82 121 -75 7 2 -6 13
-28 25 -22 11 -55 35 -72 54 -30 31 -31 34 -12 35 12 1 28 -5 36 -13 8 -7 25
-14 37 -14 13 0 29 -7 37 -16 20 -24 100 -77 106 -70 4 3 4 7 2 9 -2 2 -25 19
-51 37 -27 18 -48 36 -48 39 1 14 16 29 35 34 40 10 54 7 60 -13z m-269 -124
c8 -8 14 -17 14 -20 0 -11 -29 6 -34 20 -7 18 1 18 20 0z m17 -70 c23 -13 55
-27 71 -30 43 -10 25 -18 -25 -10 -46 8 -129 73 -129 102 0 9 7 5 21 -12 11
-14 39 -37 62 -50z m-481 -164 c-12 -8 -72 -4 -72 4 0 2 19 4 43 4 25 0 37 -4
29 -8z"/>
<path d="M1798 4644 c-23 -12 -58 -59 -58 -78 0 -3 19 4 43 14 23 11 51 20 62
20 37 0 80 -36 129 -111 28 -41 65 -92 83 -115 33 -41 41 -64 24 -64 -6 0 -13
5 -16 10 -19 32 -108 89 -147 95 -24 4 -53 13 -65 21 -13 8 -23 11 -23 6 0
-10 47 -34 111 -56 25 -9 61 -32 79 -51 36 -37 76 -46 87 -20 3 10 -14 41 -45
81 -28 37 -65 102 -83 146 -24 61 -40 85 -63 99 -37 23 -81 24 -118 3z"/>
<path d="M1469 4627 c-19 -12 -35 -32 -37 -42 -3 -19 -2 -19 15 1 10 12 28 27
40 33 27 14 117 14 146 0 21 -10 21 -9 -2 10 -34 30 -116 29 -162 -2z"/>
<path d="M1546 4555 c-16 -15 -26 -34 -26 -52 l1 -28 13 30 c38 88 97 69 121
-38 4 -20 17 -33 45 -46 56 -25 148 -141 112 -141 -5 0 -17 9 -28 21 -34 38
-70 49 -143 47 -66 -3 -79 -17 -16 -18 48 0 105 -20 147 -51 47 -33 58 -30 58
14 0 39 -66 118 -120 145 -28 14 -36 25 -43 59 -8 44 -45 83 -77 83 -9 0 -29
-11 -44 -25z"/>
<path d="M1339 4518 c-34 -19 -79 -74 -93 -113 -4 -11 18 8 49 43 36 39 68 65
88 70 28 7 29 9 11 14 -12 3 -36 -3 -55 -14z"/>
<path d="M1478 4408 c18 -52 12 -85 -24 -127 -29 -35 -39 -34 -47 6 -3 16 -12
51 -21 78 -12 42 -15 45 -15 20 -1 -16 6 -48 15 -72 13 -34 14 -48 5 -74 -6
-18 -9 -35 -6 -38 12 -11 113 102 119 134 7 35 -12 106 -30 112 -8 3 -7 -10 4
-39z"/>
<path d="M2551 4256 c2 -2 15 -9 29 -15 24 -11 24 -11 6 3 -16 13 -49 24 -35
12z"/>
<path d="M2611 4147 c-11 -38 -10 -50 13 -110 27 -71 19 -88 -15 -34 l-21 32
7 -30 c4 -16 7 -30 8 -31 1 0 13 -8 27 -17 13 -9 29 -17 34 -17 13 0 1 61 -24
115 -17 37 -20 58 -15 91 8 56 1 56 -14 1z"/>
<path d="M2495 4076 c-27 -41 -58 -41 -65 -1 -5 25 -7 27 -13 12 -18 -48 5
-84 47 -73 28 7 59 49 54 75 -2 15 -7 12 -23 -13z"/>
<path d="M2796 4060 c13 -74 59 -121 116 -120 18 1 12 7 -25 26 -38 20 -53 35
-72 77 -22 47 -24 48 -19 17z"/>
<path d="M1574 3995 c-7 -41 -1 -161 9 -171 13 -13 15 0 8 41 -4 23 -5 67 -1
98 7 64 -5 88 -16 32z"/>
<path d="M2212 3903 c-45 -88 -54 -222 -18 -291 25 -48 37 -39 13 11 -15 29
-21 60 -20 102 1 60 3 72 18 110 4 11 14 35 21 53 13 33 2 45 -14 15z"/>
<path d="M1795 3880 c-10 -16 22 -145 52 -209 31 -67 68 -122 117 -175 20 -21
34 -41 32 -43 -11 -11 -105 91 -141 153 -21 36 -46 68 -54 71 -9 2 -24 9 -34
14 -30 16 -31 -16 -1 -71 57 -105 171 -214 310 -296 99 -59 243 -129 250 -121
3 3 -44 30 -105 61 -193 97 -312 186 -395 297 -50 67 -53 74 -31 83 10 3 20
-6 31 -27 31 -59 103 -142 154 -176 27 -19 53 -31 57 -28 3 4 17 0 31 -9 13
-8 27 -13 30 -9 4 4 -2 11 -13 17 -11 6 -54 45 -95 87 -94 95 -144 187 -166
303 -17 90 -19 95 -29 78z"/>
<path d="M1640 3843 c1 -16 7 -46 15 -68 16 -45 12 -57 -11 -29 -14 18 -15 18
-8 -6 20 -77 147 -247 241 -324 92 -76 80 -52 -25 52 -105 104 -191 220 -171
232 8 6 7 24 -5 72 -9 35 -16 72 -16 81 0 9 -4 17 -10 17 -5 0 -10 -12 -10
-27z"/>
<path d="M1585 3743 c7 -31 35 -66 35 -45 0 16 -28 72 -36 72 -4 0 -3 -12 1
-27z"/>
<path d="M1425 3738 c16 -58 49 -139 58 -145 6 -4 8 1 4 13 -37 112 -53 154
-60 154 -5 0 -6 -10 -2 -22z"/>
<path d="M1985 3723 c20 -49 63 -113 74 -113 5 0 -6 26 -25 57 -18 31 -36 65
-40 75 -3 10 -10 18 -15 18 -5 0 -2 -17 6 -37z"/>
<path d="M1490 3690 c1 -46 94 -193 169 -264 62 -60 60 -36 -3 26 -57 58 -113
139 -136 198 -16 41 -30 60 -30 40z"/>
<path d="M1640 3622 c0 -14 67 -107 108 -148 22 -23 64 -61 93 -84 71 -56 199
-121 199 -101 0 5 -15 14 -32 22 -101 40 -243 155 -314 255 -45 62 -54 72 -54
56z"/>
<path d="M1534 3523 c12 -31 71 -102 85 -103 7 0 0 15 -19 36 -17 20 -36 47
-42 60 -13 27 -34 33 -24 7z"/>
<path d="M2160 3449 c-12 -7 -8 -15 20 -39 168 -145 366 -221 578 -220 107 1
223 19 229 36 3 8 -17 7 -64 -2 -115 -22 -298 10 -436 76 -47 23 -47 23 -47
11 0 -5 23 -18 50 -30 55 -24 66 -35 23 -25 -76 19 -216 99 -303 173 -26 21
-40 27 -50 20z"/>
<path d="M1727 3424 c-11 -12 18 -42 94 -99 86 -64 287 -169 313 -164 11 3
-17 19 -67 40 -78 34 -221 119 -213 127 2 1 27 -11 56 -28 81 -48 170 -91 170
-83 0 5 -37 28 -83 52 -45 24 -106 63 -136 85 -97 75 -118 85 -134 70z m68
-44 c10 -11 15 -20 11 -20 -4 0 -16 9 -28 20 -12 11 -17 20 -11 20 5 0 18 -9
28 -20z"/>
<path d="M1591 3343 c29 -46 230 -171 259 -161 6 2 -27 23 -74 47 -47 24 -107
64 -135 88 -52 46 -68 54 -50 26z"/>
<path d="M3250 3793 c0 -12 45 -33 72 -33 17 0 18 -2 8 -15 -18 -22 -5 -30 25
-17 26 12 43 38 32 49 -4 3 -17 7 -29 9 -13 2 -42 6 -65 10 -26 4 -43 3 -43
-3z"/>
<path d="M3104 3495 c1 -46 16 -46 16 0 0 19 -4 35 -8 35 -5 0 -8 -16 -8 -35z"/>
<path d="M3050 3493 c1 -28 25 -71 35 -61 3 3 -1 18 -9 33 -8 15 -12 34 -9 41
3 8 0 14 -6 14 -6 0 -11 -12 -11 -27z"/>
<path d="M4150 3275 c-30 -8 -125 -28 -210 -44 -85 -17 -231 -46 -325 -66 -93
-20 -204 -43 -245 -51 -41 -8 -104 -20 -140 -28 -69 -15 -460 -95 -855 -176
-132 -27 -274 -57 -315 -66 -41 -9 -84 -18 -95 -20 -35 -7 -106 -21 -265 -54
-129 -26 -160 -36 -183 -58 -46 -43 -37 -58 59 -102 47 -22 90 -40 95 -40 5 0
26 -11 47 -23 20 -13 64 -34 96 -46 33 -12 71 -29 85 -36 24 -14 96 -41 316
-120 50 -17 108 -39 130 -49 22 -9 96 -37 165 -61 446 -156 564 -221 623 -347
12 -27 25 -48 29 -48 5 0 31 -11 60 -25 28 -14 53 -25 55 -25 1 0 9 21 16 47
13 45 13 50 -11 103 -40 86 -31 142 34 219 64 77 151 91 276 46 40 -15 82 -29
93 -32 11 -3 43 -15 70 -28 87 -39 284 -115 299 -115 8 0 44 -14 79 -30 36
-17 70 -30 75 -30 5 0 29 -9 52 -19 51 -23 58 -21 130 32 133 98 284 279 368
442 34 67 82 185 82 203 0 7 4 20 10 30 31 55 50 319 28 386 -15 44 -54 93
-88 111 -42 22 -84 19 -277 -20 -96 -20 -178 -33 -182 -30 -5 2 -11 23 -15 47
-10 64 -34 105 -71 122 -18 9 -35 16 -37 15 -1 0 -28 -7 -58 -14z m516 -379
c1 -21 -2 -54 -7 -74 -14 -65 -29 -127 -36 -142 -3 -8 -7 -17 -7 -20 -4 -19
-65 -145 -93 -188 -18 -29 -33 -55 -33 -57 0 -27 -242 -275 -267 -275 -17 0
-16 3 7 80 17 54 42 174 64 303 7 40 17 142 24 249 l7 93 50 11 c28 6 88 19
135 29 47 9 96 21 110 25 38 12 45 7 46 -34z"/>
<path d="M295 2961 c-33 -8 -101 -43 -125 -63 -64 -54 -129 -187 -150 -310
-11 -60 -10 -74 9 -135 41 -129 135 -215 311 -284 139 -55 161 -61 400 -109
194 -39 243 -50 385 -87 68 -17 205 -58 250 -74 17 -6 53 -17 80 -24 101 -27
686 -245 790 -294 33 -16 94 -40 135 -55 41 -14 100 -35 130 -47 123 -47 223
-71 284 -67 53 4 63 8 87 37 15 18 32 31 37 27 5 -3 75 -30 155 -59 l145 -54
46 121 c50 130 53 142 34 143 -7 1 -44 13 -83 28 -38 15 -97 36 -130 47 -76
26 -88 36 -80 65 13 54 -43 116 -160 176 -51 26 -304 123 -475 182 -52 18
-138 49 -190 70 -52 20 -131 50 -175 67 -225 84 -613 259 -775 349 -30 16 -80
43 -110 59 -30 17 -73 41 -95 54 -47 28 -148 86 -223 128 -63 35 -225 99 -267
105 -58 9 -210 12 -240 4z m-154 -361 c15 -8 19 -22 19 -61 0 -92 44 -148 175
-221 41 -23 60 -40 60 -53 0 -53 -142 12 -227 103 -58 62 -86 146 -69 204 13
42 14 43 42 28z m489 -375 c38 -9 45 -15 45 -36 0 -21 -5 -24 -40 -25 -58 -1
-139 27 -143 50 -7 36 28 39 138 11z"/>
<path d="M3432 2068 c-7 -7 -12 -27 -12 -45 0 -28 6 -35 39 -52 l39 -20 -60
-163 c-192 -522 -198 -541 -198 -597 0 -34 5 -44 33 -64 41 -31 101 -58 246
-112 195 -72 306 -116 315 -125 4 -5 -8 -50 -28 -102 -20 -51 -36 -99 -36
-106 0 -7 14 -21 31 -31 47 -29 369 -135 379 -125 4 5 22 49 39 98 17 50 35
94 40 99 10 10 43 -1 223 -72 314 -124 358 -132 421 -80 21 18 49 48 61 68 26
42 211 529 203 537 -6 6 -201 82 -244 95 -45 14 -78 42 -70 62 10 26 36 21
192 -38 140 -53 165 -58 165 -32 1 29 16 37 48 26 69 -24 119 29 75 78 -10 12
-142 67 -303 128 -338 127 -712 270 -865 331 -61 24 -114 44 -119 44 -4 0 -22
6 -39 14 -18 7 -72 28 -122 46 -49 18 -157 59 -239 91 -152 60 -192 69 -214
47z m1235 -629 c85 -32 101 -51 68 -79 -11 -9 -30 -6 -92 18 -85 33 -105 51
-84 76 17 20 11 21 108 -15z"/>
<path d="M2330 1377 c0 -3 39 -31 88 -63 128 -84 132 -87 197 -121 l60 -31
105 24 c58 13 147 31 198 41 50 9 92 19 92 22 0 3 -28 17 -62 30 l-61 23 -51
-21 c-63 -26 -167 -29 -246 -7 -30 9 -63 16 -72 16 -9 0 -49 15 -90 34 -40 18
-84 37 -98 40 -14 4 -33 10 -42 12 -10 3 -18 3 -18 1z"/>
<path d="M2920 1139 c-74 -16 -166 -36 -205 -44 -38 -9 -187 -40 -330 -70
-478 -101 -456 -95 -449 -119 27 -86 95 -149 174 -160 38 -6 235 29 450 78 8
2 116 25 240 50 320 65 370 76 412 87 l36 9 -46 49 c-27 27 -55 70 -67 99 -23
63 -19 62 -215 21z"/>
</g>
</svg>
